<svg xmlns="http://www.w3.org/2000/svg" width="331" height="324"><defs><clipPath id="a"><path data-name="Rectangle 3507" transform="rotate(-3.3 3.4 .1)" fill="#fff" d="M0 0h3.4v1.4H0z"/></clipPath><clipPath id="b"><path data-name="Rectangle 3508" fill="#fff" d="M0 0h.7v5.2H0z"/></clipPath><clipPath id="c"><path data-name="Rectangle 3509" fill="#fff" d="M0 0h15.8v1H0z"/></clipPath></defs><g><path data-name="Tracé 12554" d="M295.8 199.5a.4.4 0 01-.3-.4v-10a.4.4 0 01.7 0v10a.4.4 0 01-.1.3.4.4 0 01-.3 0z" fill="#c1c7d2"/><path data-name="Tracé 12555" d="M320 209.4h-16a.4.4 0 01-.4-.3v-10a.4.4 0 11.8 0v9.6h15.5a.4.4 0 010 .7z" fill="#c1c7d2"/><path data-name="Tracé 12556" d="M287.7 209.4H304a.4.4 0 00.4-.3v-10a.4.4 0 00-.4-.4h-16.3a.4.4 0 00-.4.4v10a.4.4 0 00.4.3zm16-.7H288v-9.2h15.5z" fill="#c1c7d2" fill-rule="evenodd"/><path data-name="Tracé 12557" d="M310 199.5h-36.3a.4.4 0 010-.8H310a.4.4 0 010 .8z" fill="#c1c7d2"/><path data-name="Tracé 12558" d="M318.8 209.4h-39a.4.4 0 110-.7h39a.4.4 0 010 .7z" fill="#c1c7d2"/><path data-name="Tracé 12559" d="M295.8 219.4a.4.4 0 01-.3-.3v-10a.4.4 0 01.3-.4h16.3a.4.4 0 01.4.4v5a.4.4 0 01-.7 0v-4.7h-15.6v9.6a.4.4 0 01-.4.4z" fill="#c1c7d2"/><path data-name="Tracé 12560" d="M268.5 96v194.1H177v-219a1.4 1.4 0 011.4-1.4H267a1.4 1.4 0 011.4 1.4V92" fill="#fff"/><path data-name="Tracé 12561" d="M268.5 290.5H177a.4.4 0 01-.4-.4v-219a1.8 1.8 0 011.8-1.8H267a1.8 1.8 0 011.8 1.8V92a.4.4 0 01-.8 0V71.1a1 1 0 00-1-1h-88.7a1 1 0 00-1 1v218.7H268V96a.4.4 0 11.8 0v194.1a.4.4 0 01-.2.3.4.4 0 01-.2.1z" fill="#c1c7d2"/><path data-name="Tracé 12562" d="M185.9 105.9h3.9a.4.4 0 00.4-.4V83.8a.4.4 0 00-.4-.4h-4a.4.4 0 00-.3.4v21.7a.4.4 0 00.4.4zm3.5-.8h-3.1v-21h3.1z" fill="#c1c7d2" fill-rule="evenodd"/><path data-name="Tracé 12563" d="M189.8 105.9h4a.4.4 0 00.4-.4V81.3a.4.4 0 00-.4-.4h-4a.4.4 0 00-.4.4v24.2a.4.4 0 00.4.4zm3.7-.8h-3.3V81.7h3.3z" fill="#c1c7d2" fill-rule="evenodd"/><path data-name="Tracé 12564" d="M193.8 87h-4a.4.4 0 110-.7h4a.4.4 0 010 .7z" fill="#c1c7d2"/><path data-name="Tracé 12565" d="M193.8 89.3h-4a.4.4 0 110-.8h4a.4.4 0 010 .8z" fill="#c1c7d2"/><path data-name="Tracé 12566" d="M193.8 105.9h4.4a.4.4 0 00.4-.4V86a.4.4 0 00-.4-.3h-4.4a.4.4 0 00-.3.3v19.5a.4.4 0 00.3.4zm4-.8h-3.6V86.4h3.6z" fill="#c1c7d2" fill-rule="evenodd"/><path data-name="Tracé 12567" d="M198.2 102h-4.4a.4.4 0 010-.8h4.4a.4.4 0 010 .8z" fill="#c1c7d2"/><path data-name="Tracé 12568" d="M198.2 105.9h4.3a.4.4 0 00.4-.4V82.4a.4.4 0 00-.4-.4h-4.3a.4.4 0 00-.4.4v23.1a.4.4 0 00.4.4zm4-.8h-3.6V82.7h3.5z" fill="#c1c7d2" fill-rule="evenodd"/><path data-name="Tracé 12569" d="M209.7 105.8a.4.4 0 00.4-.3l5-20.2a.4.4 0 00-.3-.4l-4.5-1.1a.4.4 0 00-.4.3l-5 20.1a.4.4 0 000 .3.4.4 0 00.3.2zm-.2-.8l-3.8-1 4.8-19.4 3.8 1z" fill="#c1c7d2" fill-rule="evenodd"/><path data-name="Tracé 12570" d="M214.8 105.9h4.8a.4.4 0 00.3-.4V82.4a.4.4 0 00-.3-.4h-4.8a.4.4 0 00-.4.4v23.1a.4.4 0 00.4.4zm4.4-.8h-4V82.7h4z" fill="#c1c7d2" fill-rule="evenodd"/><path data-name="Tracé 12571" d="M219.5 105.9h6.2a.4.4 0 00.4-.4v-20a.4.4 0 00-.4-.3h-6.2a.4.4 0 00-.3.4v20a.4.4 0 00.3.3zm5.8-.8H220V86h5.4z" fill="#c1c7d2" fill-rule="evenodd"/><path data-name="Tracé 12572" d="M219.6 90.6h-4.8a.4.4 0 010-.8h4.8a.4.4 0 010 .8z" fill="#c1c7d2"/><path data-name="Tracé 12573" d="M219.5 103.3h6.2a.4.4 0 00.4-.4v-2.4a.4.4 0 00-.4-.4h-6.2a.4.4 0 00-.3.4v2.4a.4.4 0 00.3.4zm5.8-.8H220V101h5.4z" fill="#c1c7d2" fill-rule="evenodd"/><path data-name="Tracé 12574" d="M229.4 105.9h25a.4.4 0 00.4-.4v-4a.4.4 0 00-.4-.3h-25a.4.4 0 00-.4.4v3.9a.4.4 0 00.4.4zm24.6-.8h-24.3V102H254z" fill="#c1c7d2" fill-rule="evenodd"/><path data-name="Tracé 12575" d="M228 102h28a.4.4 0 00.3-.4v-4.8a.4.4 0 00-.4-.3h-27.8a.4.4 0 00-.4.3v4.8a.4.4 0 00.4.4zm27.6-.8h-27.2v-4h27.2z" fill="#c1c7d2" fill-rule="evenodd"/><path data-name="Tracé 12576" d="M236.6 102h10.6a.4.4 0 00.3-.2.4.4 0 00.1-.2v-4.8a.4.4 0 00-.4-.3h-10.6a.4.4 0 00-.3.3v4.8a.4.4 0 00.3.4zm10.3-.8h-10v-4h10z" fill="#c1c7d2" fill-rule="evenodd"/><path data-name="Tracé 12577" d="M231.3 97.2h20a.4.4 0 00.4-.4v-4.6a.4.4 0 00-.4-.4h-20a.4.4 0 00-.4.4v4.6a.4.4 0 00.4.4zm19.6-.7h-19.3v-4H251z" fill="#c1c7d2" fill-rule="evenodd"/><path data-name="Tracé 12578" d="M186.3 141.4h25a.4.4 0 00.5-.4v-4a.4.4 0 00-.4-.3h-25a.4.4 0 00-.4.4v3.9a.4.4 0 00.3.4zm24.7-.8h-24.3v-3.1H211z" fill="#c1c7d2" fill-rule="evenodd"/><path data-name="Tracé 12579" d="M185 137.5h28a.4.4 0 00.3-.4v-4.8a.4.4 0 00-.4-.3H185a.4.4 0 00-.3.3v4.8a.4.4 0 00.3.4zm27.6-.8h-27.2v-4h27.2z" fill="#c1c7d2" fill-rule="evenodd"/><path data-name="Tracé 12580" d="M188.3 132.7h20a.4.4 0 00.4-.4v-4.6a.4.4 0 00-.4-.4h-20a.4.4 0 00-.4.4v4.6a.4.4 0 00.3.4zm19.6-.7h-19.3v-4H208z" fill="#c1c7d2" fill-rule="evenodd"/><path data-name="Tracé 12581" d="M205.4 137.5h2a.4.4 0 00.3-.4v-4.8a.4.4 0 00-.4-.3h-1.9a.4.4 0 00-.3.3v4.8a.4.4 0 00.3.4zm1.6-.8h-1.2v-4h1.2z" fill="#c1c7d2" fill-rule="evenodd"/><path data-name="Tracé 12582" d="M190.9 141.4a.4.4 0 01-.4-.4v-4a.4.4 0 11.7 0v4a.4.4 0 01-.3.4z" fill="#c1c7d2"/><path data-name="Tracé 12583" d="M233 141.3h4a.4.4 0 00.3-.3v-21.8a.4.4 0 00-.3-.3h-4a.4.4 0 00-.3.3V141a.4.4 0 00.4.3zm3.6-.7h-3.2v-21h3.2z" fill="#c1c7d2" fill-rule="evenodd"/><path data-name="Tracé 12584" d="M229 141.3h4a.4.4 0 00.4-.3v-24.3a.4.4 0 00-.3-.3h-4a.4.4 0 00-.4.3V141a.4.4 0 00.3.3zm3.7-.7h-3.3V117h3.3z" fill="#c1c7d2" fill-rule="evenodd"/><path data-name="Tracé 12585" d="M233 130.6h-4a.4.4 0 110-.7h4a.4.4 0 110 .7z" fill="#c1c7d2"/><path data-name="Tracé 12586" d="M224.6 141.3h4.4a.4.4 0 00.3 0 .4.4 0 00.1-.4v-19.4a.4.4 0 00-.4-.4h-4.4a.4.4 0 00-.3.4V141a.4.4 0 00.3.3zm4-.7H225v-18.7h3.7z" fill="#c1c7d2" fill-rule="evenodd"/><path data-name="Tracé 12587" d="M229 137.4h-4.4a.4.4 0 010-.7h4.4a.4.4 0 010 .7z" fill="#c1c7d2"/><path data-name="Tracé 12588" d="M220.4 141.3h4.2a.4.4 0 00.4-.3v-23.2a.4.4 0 00-.4-.4h-4.2a.4.4 0 00-.4.4V141a.4.4 0 00.4.3zm3.9-.7h-3.6v-22.4h3.6z" fill="#c1c7d2" fill-rule="evenodd"/><path data-name="Tracé 12589" d="M251.8 141.3a6.4 6.4 0 113.6-11.7.4.4 0 11-.4.6 5.7 5.7 0 101.5 1.6.4.4 0 01.7-.4 6.4 6.4 0 01-5.4 10z" fill="#c1c7d2"/><path data-name="Tracé 12590" d="M181.7 105.9h82.1a.4.4 0 00.4-.4V75a.4.4 0 00-.4-.4h-82.1a.4.4 0 00-.4.4v30.6a.4.4 0 00.4.4zm81.7-.8H182V75.3h81.4z" fill="#c1c7d2" fill-rule="evenodd"/><path data-name="Tracé 12591" d="M181.7 141.3h82.1a.4.4 0 00.4-.3v-30.7a.4.4 0 00-.4-.3h-82.1a.4.4 0 00-.4.3V141a.4.4 0 00.4.3zm81.7-.7H182v-29.9h81.4z" fill="#c1c7d2" fill-rule="evenodd"/><path data-name="Tracé 12592" d="M181.7 177h82.1a.4.4 0 00.4-.4v-30.7a.4.4 0 00-.4-.3h-82.1a.4.4 0 00-.4.3v30.7a.4.4 0 00.4.4zm81.7-.8H182v-29.9h81.4z" fill="#c1c7d2" fill-rule="evenodd"/><path data-name="Tracé 12593" d="M181.7 212.3h82.1a.4.4 0 00.4-.4v-30.6a.4.4 0 00-.4-.4h-82.1a.4.4 0 00-.4.4v30.6a.4.4 0 00.4.4zm81.7-.8H182v-29.9h81.4z" fill="#c1c7d2" fill-rule="evenodd"/><path data-name="Tracé 12594" d="M181.7 247.9h82.1a.4.4 0 00.4-.4V217a.4.4 0 00-.4-.4h-82.1a.4.4 0 00-.4.4v30.6a.4.4 0 00.4.4zm81.7-.8H182v-29.8h81.4z" fill="#c1c7d2" fill-rule="evenodd"/><path data-name="Tracé 12595" d="M181.7 283.2h82.1a.4.4 0 00.3-.1.4.4 0 000-.3v-30.6a.4.4 0 00-.3-.4h-82.1a.4.4 0 00-.4.4v30.6a.4.4 0 00.4.4zm81.7-.8H182v-29.9h81.4z" fill="#c1c7d2" fill-rule="evenodd"/><path data-name="Tracé 12596" d="M197.5 177h4a.4.4 0 00.4-.4v-24.2a.4.4 0 00-.4-.4h-4a.4.4 0 00-.4.4v24.2a.4.4 0 00.4.4zm3.7-.8h-3.3v-23.5h3.3z" fill="#c1c7d2" fill-rule="evenodd"/><path data-name="Tracé 12597" d="M193.1 177h4.4a.4.4 0 00.4-.4V157a.4.4 0 00-.4-.4h-4.4a.4.4 0 00-.4.4v19.5a.4.4 0 00.4.3zm4-.8h-3.6v-18.7h3.6z" fill="#c1c7d2" fill-rule="evenodd"/><path data-name="Tracé 12598" d="M188.8 177h4.3a.4.4 0 00.4-.4v-23.2a.4.4 0 00-.4-.3h-4.3a.4.4 0 00-.3.3v23.2a.4.4 0 00.3.3zm4-.8h-3.6v-22.4h3.5z" fill="#c1c7d2" fill-rule="evenodd"/><path data-name="Tracé 12599" d="M226 177h25a.4.4 0 00.3-.4v-4a.4.4 0 00-.3-.3h-25a.4.4 0 00-.4.4v3.9a.4.4 0 00.3.3zm24.6-.8h-24.3V173h24.3z" fill="#c1c7d2" fill-rule="evenodd"/><path data-name="Tracé 12600" d="M224.6 173h28a.4.4 0 00.3-.3v-4.8a.4.4 0 00-.4-.4h-27.9a.4.4 0 00-.4.4v4.8a.4.4 0 00.4.3zm27.5-.7H225v-4H252z" fill="#c1c7d2" fill-rule="evenodd"/><path data-name="Tracé 12601" d="M228.6 173h2.6a.4.4 0 00.3-.3v-4.8a.4.4 0 00-.3-.4h-2.6a.4.4 0 00-.4.4v4.8a.4.4 0 00.4.3zm2.2-.7H229v-4h2z" fill="#c1c7d2" fill-rule="evenodd"/><path data-name="Tracé 12602" d="M227.8 168.3h20a.4.4 0 00.4-.1.4.4 0 000-.3v-4.6a.4.4 0 00-.3-.4h-20a.4.4 0 00-.4.4v4.6a.4.4 0 00.3.4zm19.7-.8h-19.3v-3.8h19.3z" fill="#c1c7d2" fill-rule="evenodd"/><path data-name="Tracé 12603" d="M188.8 167.4h4.3a.4.4 0 00.4-.4v-2.8a.4.4 0 00-.4-.4h-4.3a.4.4 0 00-.3.4v2.8a.4.4 0 00.3.4zm4-.7h-3.6v-2.2h3.5z" fill="#c1c7d2" fill-rule="evenodd"/><path data-name="Rectangle 3490" fill="#fff" d="M241.8 163.3h2.1v4.6h-2z"/><path data-name="Tracé 12604" d="M241.8 168.3h2.1a.4.4 0 00.4-.4v-4.6a.4.4 0 00-.4-.4h-2a.4.4 0 00-.5.4v4.6a.4.4 0 00.4.4zm1.7-.8h-1.3v-3.8h1.3z" fill="#c1c7d2" fill-rule="evenodd"/><path data-name="Tracé 12605" d="M197.6 202l-8.8 9.9h28.7l-14-15.9a.3.3 0 00-.3-.1.3.3 0 00-.3.1l-3.6 4" fill="#fff"/><path data-name="Tracé 12606" d="M217.5 212.2h-28.7a.4.4 0 01-.3-.6l8.8-9.8a.4.4 0 11.6.5l-8.2 9.2h27l-13.5-15.2-3.6 4a.4.4 0 01-.6-.5l3.6-4a.7.7 0 011 0l14.2 15.8a.4.4 0 010 .4.4.4 0 01-.3.2z" fill="#c1c7d2"/><path data-name="Tracé 12607" d="M206 211.9h16.5l-8.1-9.2a.2.2 0 00-.3 0z" fill="#fff"/><path data-name="Tracé 12608" d="M206 212.2h16.5a.4.4 0 00.3-.6l-8.1-9.1a.6.6 0 00-.9 0l-8.1 9.1a.4.4 0 00.3.6zm15.7-.7h-14.9l7.4-8.4z" fill="#c1c7d2" fill-rule="evenodd"/><path data-name="Tracé 12609" d="M248.3 212.1a.4.4 0 00.2 0l4.6-1a.4.4 0 00.3-.5l-5-20.2a.4.4 0 00-.2-.2.4.4 0 00-.3 0l-4.5 1a.4.4 0 00-.2.5l5 20.2a.4.4 0 00.1.2zm.5-.8L244 192l3.8-1 4.8 19.5z" fill="#c1c7d2" fill-rule="evenodd"/><path data-name="Tracé 12610" d="M238.7 212.3h4.8a.4.4 0 00.3-.4v-23.2a.4.4 0 00-.3-.3h-4.8a.4.4 0 00-.3.3V212a.4.4 0 00.3.4zm4.4-.8h-4v-22.4h4z" fill="#c1c7d2" fill-rule="evenodd"/><path data-name="Tracé 12611" d="M232.6 212.2h6.1a.4.4 0 00.4-.3v-20a.4.4 0 00-.4-.3h-6.1a.4.4 0 00-.4.3v20a.4.4 0 00.4.3zm5.8-.7h-5.5v-19.2h5.5z" fill="#c1c7d2" fill-rule="evenodd"/><path data-name="Tracé 12612" d="M238.7 209.2h-6.2a.4.4 0 110-.8h6.2a.4.4 0 010 .8z" fill="#c1c7d2"/><path data-name="Tracé 12613" d="M238.7 196h-6.1a.4.4 0 110-.8h6.1a.4.4 0 010 .8z" fill="#c1c7d2"/><path data-name="Tracé 12614" d="M188 247.8h25.1a.4.4 0 00.4-.3v-4a.4.4 0 00-.4-.3h-25a.4.4 0 00-.4.4v3.9a.4.4 0 00.4.3zm24.7-.7h-24.3v-3.2h24.3z" fill="#c1c7d2" fill-rule="evenodd"/><path data-name="Tracé 12615" d="M186.8 244h27.9a.4.4 0 00.3-.5v-4.7a.4.4 0 00-.3-.4h-28a.4.4 0 00-.3.4v4.7a.4.4 0 00.4.4zm27.5-.8H187v-4h27.2z" fill="#c1c7d2" fill-rule="evenodd"/><path data-name="Tracé 12616" d="M190 239.2h20a.4.4 0 00.4-.4v-4.6a.4.4 0 00-.4-.4h-20a.4.4 0 00-.4.4v4.6a.4.4 0 00.4.4zm19.6-.8h-19.3v-3.8h19.3z" fill="#c1c7d2" fill-rule="evenodd"/><path data-name="Tracé 12617" d="M199 244h3.2a.4.4 0 00.4-.5v-4.7a.4.4 0 00-.4-.4H199a.4.4 0 00-.4.4v4.7a.4.4 0 00.4.4zm2.8-.8h-2.5v-4h2.5z" fill="#c1c7d2" fill-rule="evenodd"/><path data-name="Tracé 12618" d="M193.3 239.2a.4.4 0 01-.3-.4v-4.6a.4.4 0 01.7 0v4.6a.4.4 0 01-.4.4z" fill="#c1c7d2"/><path data-name="Tracé 12619" d="M233.4 247.9h6.1a.4.4 0 00.4-.3l3.1-11.5a.4.4 0 000-.3.4.4 0 00-.3-.1h-12.5a.4.4 0 00-.3.1.4.4 0 000 .3l3.1 11.5a.4.4 0 00.4.3zm5.8-.8h-5.6l-2.9-10.7h11.5z" fill="#c1c7d2" fill-rule="evenodd"/><path data-name="Tracé 12620" d="M235 247.8a.4.4 0 01-.3-.3l-3.6-16.8a.4.4 0 01.7-.1l3.6 16.8a.4.4 0 01-.3.4z" fill="#c1c7d2"/><path data-name="Tracé 12621" d="M237.9 247.8a.3.3 0 01-.1 0 .4.4 0 01-.3-.4l4-21a.4.4 0 01.4-.3.4.4 0 01.3.5l-4 21a.4.4 0 01-.3.2z" fill="#c1c7d2"/><path data-name="Tracé 12622" d="M236.5 247.8a.4.4 0 01-.4-.4v-14.7a.4.4 0 01.7 0v14.7a.4.4 0 010 .3.4.4 0 01-.3 0z" fill="#c1c7d2"/><path data-name="Tracé 12623" d="M240.5 233.7a.4.4 0 01-.3-.1.4.4 0 010-.5l2.9-2a.4.4 0 01.4.7l-2.8 1.9a.4.4 0 01-.2 0z" fill="#c1c7d2"/><path data-name="Tracé 12624" d="M232.2 234.4a.4.4 0 01-.2 0l-2.6-1.3a.4.4 0 01.3-.7l2.6 1.3a.4.4 0 01-.1.7z" fill="#c1c7d2"/><path data-name="Tracé 12625" d="M236.5 240.5a.4.4 0 01-.3-.7l1.4-1.7a.4.4 0 01.3-.1.4.4 0 01.3.2.4.4 0 010 .4l-1.5 1.7a.4.4 0 01-.2.2z" fill="#c1c7d2"/><path data-name="Tracé 12626" d="M241.4 229.2a.4.4 0 01-.3-.2l-1-1.8a.4.4 0 01.3-.6.4.4 0 01.3.2l1 1.8a.4.4 0 010 .5.4.4 0 01-.3 0z" fill="#c1c7d2"/><path data-name="Tracé 12627" d="M187 283.2h4a.4.4 0 00.3-.4v-21.7a.4.4 0 00-.4-.4H187a.4.4 0 00-.4.4v21.7a.4.4 0 00.4.4zm3.6-.8h-3.2v-21h3.2z" fill="#c1c7d2" fill-rule="evenodd"/><path data-name="Tracé 12628" d="M191 283.2h4a.4.4 0 00.3-.4v-24.2a.4.4 0 00-.3-.4h-4a.4.4 0 00-.4.4v24.2a.4.4 0 00.3.4zm3.6-.8h-3.3V259h3.3z" fill="#c1c7d2" fill-rule="evenodd"/><path data-name="Tracé 12629" d="M195 267.9H191a.4.4 0 110-.8h3.9a.4.4 0 110 .8z" fill="#c1c7d2"/><path data-name="Tracé 12630" d="M195 283.2h4.3a.4.4 0 00.4-.4v-19.5a.4.4 0 00-.4-.3H195a.4.4 0 00-.4.3v19.5a.4.4 0 00.4.4zm4-.8h-3.7v-18.7h3.7z" fill="#c1c7d2" fill-rule="evenodd"/><path data-name="Tracé 12631" d="M199.3 279.3H195a.4.4 0 010-.8h4.3a.4.4 0 010 .8z" fill="#c1c7d2"/><path data-name="Tracé 12632" d="M203.6 283.2h-4.3a.4.4 0 01-.3-.4v-23.1a.4.4 0 01.3-.4h4.3a.4.4 0 01.4.4v5.8a.4.4 0 01-.8 0V260h-3.5v22.4h3.5v-13.8a.4.4 0 01.8 0v14.2a.4.4 0 01-.1.3.4.4 0 01-.3 0z" fill="#c1c7d2"/><path data-name="Tracé 12633" d="M197.5 231.2a3.2 3.2 0 103.2-3.2 3.2 3.2 0 00-3.2 3.2zm.8 0a2.5 2.5 0 112.4 2.5 2.5 2.5 0 01-2.4-2.5z" fill="#c1c7d2" fill-rule="evenodd"/><path data-name="Tracé 12634" d="M222.7 283.2h5.9a.4.4 0 00.2-.1.4.4 0 00.1-.3v-18.9a.4.4 0 00-.3-.3h-5.9a.4.4 0 00-.4.3v18.9a.4.4 0 00.4.4zm5.5-.8H223v-18.1h5z" fill="#c1c7d2" fill-rule="evenodd"/><path data-name="Tracé 12635" d="M218.7 283.2h4a.4.4 0 00.4-.4v-24.2a.4.4 0 00-.4-.4h-4a.4.4 0 00-.4.4v24.2a.4.4 0 00.4.4zm3.6-.8H219V259h3.3z" fill="#c1c7d2" fill-rule="evenodd"/><path data-name="Tracé 12636" d="M214.3 283.2h4.4a.4.4 0 00.2-.1.4.4 0 00.1-.3v-19.5a.4.4 0 00-.3-.3h-4.4a.4.4 0 00-.4.3v19.5a.4.4 0 00.4.4zm4-.8h-3.7v-18.7h3.7z" fill="#c1c7d2" fill-rule="evenodd"/><path data-name="Tracé 12637" d="M222.7 277h5.9a.4.4 0 00.3-.4V270a.4.4 0 00-.3-.4h-5.9a.4.4 0 00-.3.4v6.5a.4.4 0 00.3.4zm5.5-.8h-5v-5.7h5z" fill="#c1c7d2" fill-rule="evenodd"/><path data-name="Tracé 12638" d="M236.4 283.2h17.8a.4.4 0 00.2-.1.4.4 0 00.2-.3v-11.2a.8.8 0 00-1.3-.7l-17 11.6a.4.4 0 00-.2.4.4.4 0 00.3.3zm17.4-.8h-16.2l16-11h.2v.2z" fill="#c1c7d2" fill-rule="evenodd"/><path data-name="Tracé 12639" d="M241 280a.3.3 0 00.1 0 .3.3 0 00.2 0l8.1-5.6a.4.4 0 00.2-.3.4.4 0 00-.1-.3l-7.4-8a.8.8 0 00-1.4.5v13.3a.4.4 0 00.2.3zm.5-13.7l7.1 7.7-7.1 5v-12.7z" fill="#c1c7d2" fill-rule="evenodd"/><path data-name="Tracé 12640" d="M197.9 239.9c-3.8 16.8-17.5 16.2-17.5 16.2h-80s-13.6.6-17.4-16.2c-3.4-14.9-6.7-32.8-2.2-44a8.3 8.3 0 016.7-5.3 7.9 7.9 0 012.7.2c2.8.6 5.6 2.8 6.8 8.7 1.5 7.3 3 15.5 4 21.4a13.6 13.6 0 00-4 10.6 3.5 3.5 0 00.1.4 11 11 0 00.5 2.4 7.1 7.1 0 006.8 4.6H177a6.6 6.6 0 006.4-4.8 14.1 14.1 0 00.4-2.2v-.4a13.6 13.6 0 00-3.9-10.6c1-6 2.5-14 4-21.4 1.2-5.9 4-8 6.8-8.7a8.2 8.2 0 019.4 5c4.5 11.3 1.1 29.2-2.2 44z" fill="#f7f9fb" fill-rule="evenodd"/><path data-name="Tracé 12641" d="M92.9 254.7a17 17 0 007.3 1.9 1.4 1.4 0 00.2 0h80a16.7 16.7 0 007.6-1.9c3.6-1.8 8.4-5.9 10.4-14.7 3.7-16.6 6.5-33.4 2.2-44.4a8.8 8.8 0 00-10-5.3c-3.7.8-6.1 4-7.2 9.1-1.6 7.4-3 15.7-4 21.4a.5.5 0 00.2.4 13.1 13.1 0 013.7 10.2v.4a13.4 13.4 0 01-.4 2.2 6 6 0 01-5.9 4.4h-72.6a6.6 6.6 0 01-6.3-4.3 10.4 10.4 0 01-.5-2.3v-.4a13.1 13.1 0 013.7-10.2.5.5 0 00.2-.4c-1-5.7-2.5-14-4-21.4-1-5.2-3.5-8.3-7.2-9.1a8.4 8.4 0 00-2.9-.2 8.8 8.8 0 00-7 5.6c-4.4 11-1.6 27.7 2.1 44.3 2 8.9 6.8 12.9 10.4 14.7zm-5.4-63.6a7 7 0 01.9 0 7.5 7.5 0 011.6.2c3.4.7 5.5 3.5 6.5 8.3a608 608 0 014 21.1 14.1 14.1 0 00-4 10.8l.1.5a11.5 11.5 0 00.6 2.4 7.6 7.6 0 007.2 5H177a7 7 0 006.8-5.2 14.5 14.5 0 00.5-2.2v-.2a2.6 2.6 0 000-.3 14.1 14.1 0 00-3.9-10.8c1-5.6 2.4-13.8 4-21 1-4.9 3.1-7.7 6.4-8.4a7.8 7.8 0 018.8 4.7c2.4 6 4 16-2.2 43.8-1.5 6.8-4.8 11.5-9.8 14a16 16 0 01-7.2 1.8h-80a16 16 0 01-7-1.8c-5-2.5-8.4-7.2-10-14-3.4-15.6-6.4-33-2.2-43.8a7.9 7.9 0 016.3-4.9z" fill="#081f4d" fill-rule="evenodd"/><path data-name="Tracé 12642" d="M197.6 168l-4.2 21.7v1a7.9 7.9 0 00-2.7.1c-2.8.7-5.6 2.9-6.8 8.8-1.6 7.3-3 15.4-4 21.3a14.5 14.5 0 00-3.7-2.7c-12.3-6.5-35.8-6.1-35.8-6.1s-23.4-.4-35.8 6a14.4 14.4 0 00-3.6 2.8c-1-5.9-2.5-14-4-21.3-1.2-6-4-8.1-6.8-8.8a7.9 7.9 0 00-2.7-.1v-1L83.3 168a21.5 21.5 0 01-.2-7.1c.6-3.9 2.5-7.6 7.5-9.2 6.5-2.1 12.7 1.2 22.5 5.4s17 5 27.3 5 17.5-.8 27.4-5 16-7.5 22.5-5.4c5 1.6 7 5.3 7.5 9.2a21.5 21.5 0 01-.2 7z" fill="#f7f9fb" fill-rule="evenodd"/><path data-name="Tracé 12643" d="M100.8 221.4a.5.5 0 00.2 0 .5.5 0 00.3-.1 13.9 13.9 0 013.6-2.7c11.8-6.2 34.2-6 35.5-6 .5 0 23.6-.3 35.6 6a14 14 0 013.6 2.7.5.5 0 00.8-.3c1-5.7 2.4-14 4-21.3 1-4.8 3.1-7.6 6.4-8.4a7.3 7.3 0 012.5-.1.5.5 0 00.6-.5v-1l4.2-21.6a22 22 0 00.2-7.3c-.7-4.9-3.5-8.2-7.9-9.6-5.8-2-11.5.5-19.4 4l-3.4 1.5c-10 4.2-17 5-27.1 5s-17.2-.8-27.2-5l-2.5-1.2-1-.3c-7.8-3.5-13.5-6-19.3-4a11.1 11.1 0 00-7.9 9.6 22 22 0 00.2 7.3l4.2 21.6v1a.5.5 0 00.5.5 7.3 7.3 0 012.5.1c3.4.8 5.5 3.6 6.5 8.4 1.6 7.4 3 15.7 4 21.3a.5.5 0 00.3.4zm-10.5-31a8.5 8.5 0 00-2-.3H88v-.4a.5.5 0 000-.1l-4.2-21.7a21 21 0 01-.2-7 10 10 0 017.2-8.8c5.5-1.8 10.7.5 18.6 4l3.5 1.5c10 4.2 17.4 5 27.5 5a62.7 62.7 0 0030.3-6.2l.7-.3c8-3.5 13.2-5.8 18.7-4a10 10 0 017.1 8.8 21 21 0 01-.1 7l-4.2 21.7a.5.5 0 000 .1v.5a8.4 8.4 0 00-2.3.2c-3.7.8-6.1 3.9-7.2 9-1.5 7.1-2.9 14.9-3.8 20.5a14.9 14.9 0 00-3.1-2.2c-12.2-6.3-35-6.1-36-6.1-.4 0-6.2 0-13.4.6-6.8.7-16.2 2.2-22.7 5.5a15 15 0 00-3.1 2.2l-3.8-20.4c-1-5.2-3.5-8.3-7.2-9.2z" fill="#081f4d" fill-rule="evenodd"/><path data-name="Tracé 12644" d="M183.8 231.5a3.6 3.6 0 010 .4 14.1 14.1 0 01-.4 2.2 6.6 6.6 0 01-6.4 4.8h-72.6a7.1 7.1 0 01-6.8-4.6 11 11 0 01-.5-2.4v-.4a13.6 13.6 0 013.8-10.6 14.4 14.4 0 013.7-2.8c12.4-6.4 35.8-6 35.8-6s23.5-.4 35.8 6a14.5 14.5 0 013.7 2.7 13.6 13.6 0 014 10.7z" fill="#e8ebef" fill-rule="evenodd"/><g data-name="Groupe 19786"><path data-name="Tracé 12645" d="M183.8 231.5a3.6 3.6 0 010 .4 14.1 14.1 0 01-.4 2.2 6.6 6.6 0 01-6.4 4.8h-72.6a7.1 7.1 0 01-6.8-4.6 11 11 0 01-.5-2.4v-.4a13.6 13.6 0 013.8-10.6 14.4 14.4 0 013.7-2.8c12.4-6.4 35.8-6 35.8-6s23.5-.4 35.8 6a14.5 14.5 0 013.7 2.7 13.6 13.6 0 014 10.7z" fill="#f7f9fb" opacity=".4"/></g><path data-name="Tracé 12646" d="M104.4 239.4H177a7 7 0 006.8-5.2 14.6 14.6 0 00.5-2.2v-.2a2.4 2.4 0 000-.3 14.1 14.1 0 00-4-11 15 15 0 00-3.8-2.8c-12-6.3-34.7-6.2-36-6.1-.5 0-23.8-.3-36.1 6a14.9 14.9 0 00-3.8 3 14.1 14.1 0 00-4 11v.4a11.5 11.5 0 00.6 2.4 7.6 7.6 0 007.2 5zm.5-20.8c11-5.8 31.2-6 35-6h.5c.5 0 23.5-.3 35.6 6a14 14 0 013.5 2.6 13.1 13.1 0 013.8 10.2v.4a13.5 13.5 0 01-.4 2.2 6 6 0 01-6 4.4h-72.6a6.6 6.6 0 01-6.2-4.3 10.4 10.4 0 01-.5-2.3v-.4a13.1 13.1 0 013.7-10.2 13.9 13.9 0 013.6-2.6z" fill="#081f4d" fill-rule="evenodd"/><path data-name="Tracé 12647" d="M93.5 190.4a.2.2 0 01-.3-.2l-4.4-22.6a17 17 0 011.6-11.3 14.8 14.8 0 011.8-2.6.2.2 0 01.3.4 14.3 14.3 0 00-1.6 2.4 16.4 16.4 0 00-1.6 11l4.4 22.6a.2.2 0 01-.2.3z" fill="#081f4d"/><path data-name="Tracé 12648" d="M187.6 190.4a.2.2 0 01-.3-.3l4.3-23.4a16 16 0 00-1-9.4 13.8 13.8 0 00-2.1-3.2.2.2 0 11.4-.4 14.3 14.3 0 012 3.4 16.4 16.4 0 011.2 9.7l-4.3 23.4a.2.2 0 01-.2.2z" fill="#081f4d"/><path data-name="Tracé 12649" d="M118.5 211.3a.2.2 0 01-.3-.2l-3.2-16.9a.3.3 0 01.5 0l3.2 16.8a.2.2 0 01-.2.3z" fill="#081f4d"/><path data-name="Tracé 12650" d="M164.9 214a.2.2 0 01-.3-.2l2.8-14.6a.3.3 0 11.5.1l-2.7 14.5a.2.2 0 01-.3.2z" fill="#081f4d"/><path data-name="Tracé 12651" d="M130.6 212.3a.2.2 0 01-.3-.2l-1-10.1a.3.3 0 01.5 0l1 10a.2.2 0 01-.2.3z" fill="#081f4d"/><path data-name="Tracé 12652" d="M129.4 200.4a.2.2 0 01-.2-.2l-1.2-11.9a.2.2 0 01.5 0l1.2 11.9a.2.2 0 01-.3.2z" fill="#081f4d"/><path data-name="Tracé 12653" d="M140.3 208.5a.2.2 0 01-.3-.2v-22.8a.3.3 0 11.5 0v22.8a.2.2 0 01-.2.2z" fill="#081f4d"/><path data-name="Tracé 12654" d="M153.6 212.3a.2.2 0 01-.2-.3l1.5-16a.3.3 0 11.5.1l-1.5 16a.2.2 0 01-.3.2z" fill="#081f4d"/><path data-name="Tracé 12655" d="M155.4 193.5a.2.2 0 01-.2-.3l.3-3.7a.3.3 0 11.5 0l-.3 3.8a.2.2 0 01-.3.2z" fill="#081f4d"/><path data-name="Tracé 12656" d="M101.6 256L99 290h6l7.5-34z" fill="#fff" fill-rule="evenodd"/><path data-name="Tracé 12657" d="M99.1 290.5h6a.5.5 0 00.5-.4l7.4-34a.5.5 0 00-.4-.6h-11a.5.5 0 00-.5.4l-2.5 34a.5.5 0 00.1.4.5.5 0 00.4.2zm5.7-1h-5.2l2.4-33h10z" fill="#081f4d" fill-rule="evenodd"/><path data-name="Tracé 12658" d="M179.3 256l2.4 34h-6l-7.4-34z" fill="#fff" fill-rule="evenodd"/><path data-name="Tracé 12659" d="M175.7 290.5h6a.5.5 0 00.4-.2.5.5 0 00.1-.3l-2.4-34a.5.5 0 00-.5-.5h-11a.5.5 0 00-.5.6l7.4 34a.5.5 0 00.5.4zm5.5-1H176l-7.2-33h9.9z" fill="#081f4d" fill-rule="evenodd"/><path data-name="Tracé 12661" d="M172.7 231.9h11a14.1 14.1 0 01-.3 2.2 6.6 6.6 0 01-6.4 4.8h-72.6a7.1 7.1 0 01-6.8-4.6 11.2 11.2 0 01-.5-2.4h69.2" fill="#f7f9fb" fill-rule="evenodd"/><path data-name="Tracé 12662" d="M177 239.4h-72.6a7.6 7.6 0 01-7.2-5 11.7 11.7 0 01-.6-2.4.5.5 0 01.5-.6h69.2a.5.5 0 010 1H97.7a10.2 10.2 0 00.4 1.7 6.6 6.6 0 006.3 4.3H177a6 6 0 005.9-4.4 13.3 13.3 0 00.3-1.6h-10.5a.5.5 0 010-1h11a.5.5 0 01.6.5 14.8 14.8 0 01-.5 2.3 7 7 0 01-6.8 5.2z" fill="#081f4d"/><path data-name="Tracé 12672" d="M166.5 220.5a49.9 49.9 0 00-9.9-1.5.3.3 0 110-.5 51 51 0 0110 1.5.2.2 0 010 .5z" fill="#081f4d"/><path data-name="Tracé 12673" d="M91 207.6a.2.2 0 01-.2 0l-3.8-4.4a.2.2 0 11.4-.4l3.7 4.4a.2.2 0 01-.2.4z" fill="#081f4d"/><path data-name="Tracé 12674" d="M90.7 204.5a.2.2 0 01-.2-.1l-.9-1a.2.2 0 11.4-.4l1 1a.2.2 0 01-.3.5z" fill="#081f4d"/><path data-name="Tracé 12675" d="M88.5 207.6a.2.2 0 01-.2-.1l-2-2.4a.2.2 0 11.4-.3l2 2.3a.2.2 0 01-.2.5z" fill="#081f4d"/><g data-name="Groupe 23509" transform="translate(30.7 31)"><rect data-name="Rectangle 3491" width="60" height="6.6" rx=".9" transform="rotate(180 30.2 16.9)" fill="#fff"/><path data-name="Tracé 12676" d="M60.2 34.2H.6a.6.6 0 01-.6-.6v-6.2a.6.6 0 01.6-.6h59.6a.6.6 0 01.6.6v6.2a.6.6 0 01-.6.6zM.7 33.4H60v-5.9H.7z" fill="#c1c7d2" fill-rule="evenodd"/><path data-name="Rectangle 3492" fill="#fff" d="M53.2 27.2h-7.8V6.4h7.8z"/><path data-name="Tracé 12677" d="M53.2 27.5h-7.8a.4.4 0 01-.4-.3V6.3a.4.4 0 01.4-.3h7.8a.4.4 0 01.4.3v20.9a.4.4 0 01-.4.3zm-7.5-.7h7.1v-20h-7z" fill="#c1c7d2" fill-rule="evenodd"/><path data-name="Tracé 12678" d="M45 .4h-7.2a.3.3 0 00-.3.3v26.5h7.9V.7a.3.3 0 00-.3-.3z" fill="#fff"/><path data-name="Tracé 12679" d="M45.4 27.5h-7.9a.4.4 0 01-.4-.3V.7a.7.7 0 01.7-.7h7.3a.7.7 0 01.6.7v26.5a.4.4 0 01-.3.3zm-7.5-.7h7V.8h-7z" fill="#c1c7d2" fill-rule="evenodd"/><path data-name="Rectangle 3493" fill="#fff" d="M53.2 20.3h-7.8v-7.8h7.8z"/><path data-name="Tracé 12680" d="M53.2 20.7h-7.8a.4.4 0 01-.4-.4v-7.9a.4.4 0 01.4-.3h7.8a.4.4 0 01.4.3v7.9a.4.4 0 01-.4.4zm-7.5-.8h7.1v-7h-7z" fill="#c1c7d2" fill-rule="evenodd"/><path data-name="Rectangle 3494" fill="#fff" d="M43.6 6.6h-4.4V4.7h4.4z"/><path data-name="Tracé 12681" d="M43.6 7h-4.3a.4.4 0 01-.4-.4V4.7a.4.4 0 01.4-.4h4.3a.4.4 0 01.4.4v2a.4.4 0 01-.4.3zm-4-.8h3.7V5.1h-3.7z" fill="#c1c7d2" fill-rule="evenodd"/><path data-name="Tracé 12682" d="M37.6 6.7l-5.1-2.2a.2.2 0 00-.3 0l-8.8 20a.2.2 0 000 .3l5.2 2.2z" fill="#fff"/><path data-name="Tracé 12683" d="M28.9 27.2a.3.3 0 01-.5.1l-5.1-2.2a.5.5 0 01-.3-.3.5.5 0 010-.4l8.8-20a.6.6 0 01.8-.3l5 2.2a.4.4 0 01.3.5zm-.6-.7L37 7l-4.6-2-8.7 19.6z" fill="#c1c7d2" fill-rule="evenodd"/><path data-name="Tracé 12684" d="M31.7 16.6a.4.4 0 00.2-.7l-2.7-1.1a.4.4 0 10-.3.6l2.7 1.2a.3.3 0 00.1 0z" fill="#c1c7d2"/><path data-name="Tracé 12685" d="M32.3 15.3a.4.4 0 00.2-.8l-2.7-1.1a.4.4 0 10-.3.7l2.7 1.1a.4.4 0 00.1 0z" fill="#c1c7d2"/><path data-name="Tracé 12686" d="M17.7 17H7.8a.2.2 0 00-.1.1v10h10.1v-10a.2.2 0 00-.1-.1z" fill="#fff"/><path data-name="Tracé 12687" d="M17.8 27.5H7.7a.4.4 0 01-.4-.3v-10a.5.5 0 01.5-.6h9.9a.5.5 0 01.5.5v10a.4.4 0 01-.4.4zM8 26.8h9.5v-9.4H8z" fill="#c1c7d2" fill-rule="evenodd"/><path data-name="Tracé 12688" d="M15.5 18.2a.2.2 0 00.2-.3v-1a.3.3 0 00-.5 0v1a.2.2 0 00.3.3z" fill="#c1c7d2"/><path data-name="Tracé 12689" d="M14 18.7a.2.2 0 00.3-.2V17a.3.3 0 00-.5 0v1.5a.2.2 0 00.3.2z" fill="#c1c7d2"/></g><path data-name="Rectangle 3502" fill="#fff" d="M6.6 122.8H0v-10.9h6.6z"/><path data-name="Tracé 12701" d="M303 256.6a.2.2 0 00.2.2.2.2 0 00.2 0 .3.3 0 000-.3 63.7 63.7 0 01-2.5-16.8 19.4 19.4 0 01.3-3.4 8 8 0 002.4 1.8 4 4 0 004.6-1 3.4 3.4 0 00.8-1.6 3.6 3.6 0 00-1.1-3.5 3.8 3.8 0 00-3.2-1 4 4 0 00-2.8 2 9 9 0 00-1 2.3c-6-7.3-8.3-26.5-8.4-26.7a.3.3 0 00-.5 0 110 110 0 002.6 13.3 36 36 0 006.2 14 18.8 18.8 0 00-.4 3.8 64.2 64.2 0 002.6 17zm.8-19a7.8 7.8 0 01-2.4-1.9 9 9 0 011-2.4 3.6 3.6 0 012.4-1.7 3.3 3.3 0 012.8.7 3.2 3.2 0 01.9 3 3 3 0 01-.7 1.6 3.4 3.4 0 01-4 .7z" fill="#081f4d" fill-rule="evenodd"/><path data-name="Tracé 12702" d="M330.8 290.2a23.1 23.1 0 01-12.2-5.5 56.4 56.4 0 01-15-26.2.2.2 0 01.4-.2 55.9 55.9 0 0015 26 22.7 22.7 0 0011.8 5.5.3.3 0 01.2.2.2.2 0 01-.2.2z" fill="#081f4d"/><path data-name="Tracé 12703" d="M305.4 169.6h-50.5l7.2-34.8a1 1 0 011-.8h34.1a1 1 0 011 .8z" fill="#c7e5fe" fill-rule="evenodd"/><path data-name="Tracé 12704" d="M255 170h50.4a.5.5 0 00.5-.5l-7.2-34.8a1.5 1.5 0 00-1.5-1.2h-34.1a1.5 1.5 0 00-1.5 1.2l-7.1 34.8a.5.5 0 00.5.6zm49.8-1h-49.3l7-34.1a.5.5 0 01.6-.4h34.1a.5.5 0 01.5.4z" fill="#081f4d" fill-rule="evenodd"/><path data-name="Tracé 12705" d="M274.4 181.6L262.7 290h-3.5L271 181.6z" fill="#f7f9fb" fill-rule="evenodd"/><path data-name="Tracé 12706" d="M259.2 290.5h3.5a.5.5 0 00.5-.4l11.7-108.5a.5.5 0 00-.5-.5H271a.5.5 0 00-.3 0 .5.5 0 00-.2.4L258.7 290a.5.5 0 00.5.6zm3-1h-2.4l11.6-107.4h2.5z" fill="#081f4d" fill-rule="evenodd"/><path data-name="Rectangle 3503" fill="#f7f9fb" d="M278.4 181.6h3.5V290h-3.5z"/><path data-name="Tracé 12707" d="M278.4 290.5h3.5a.5.5 0 00.5-.5V181.6a.5.5 0 00-.5-.5h-3.5a.5.5 0 00-.5.5V290a.5.5 0 00.5.5zm3-1h-2.5V182.1h2.5z" fill="#081f4d" fill-rule="evenodd"/><path data-name="Tracé 12708" d="M301.2 290h-3.5L286 181.6h3.5z" fill="#f7f9fb" fill-rule="evenodd"/><path data-name="Tracé 12709" d="M297.7 290.5h3.5a.5.5 0 00.3-.2.5.5 0 00.2-.4l-11.8-108.4a.5.5 0 00-.2-.3.5.5 0 00-.3-.1h-3.5a.5.5 0 00-.5.5l11.8 108.5a.5.5 0 00.5.4zm3-1h-2.5l-11.7-107.4h2.5z" fill="#081f4d" fill-rule="evenodd"/><path data-name="Tracé 12710" d="M289.6 178.2v3.3a.2.2 0 01-.2.2H271a.2.2 0 01-.2-.2v-3.3a.2.2 0 01.2-.2h18.5a.2.2 0 01.2.2z" fill="#f7f9fb" fill-rule="evenodd"/><path data-name="Tracé 12711" d="M271 182.2h18.4a.7.7 0 00.7-.7v-3.3a.7.7 0 00-.7-.7h-18.5a.7.7 0 00-.7.7v3.3a.7.7 0 00.6.7.6.6 0 00.1 0zm18-1h-17.8v-2.7h17.9z" fill="#081f4d" fill-rule="evenodd"/><path data-name="Rectangle 3504" fill="#f7f9fb" d="M278.6 169.5h3.1v8.5h-3z"/><path data-name="Tracé 12712" d="M278.6 178.5h3a.5.5 0 00.6-.5v-8.5a.5.5 0 00-.5-.5h-3a.5.5 0 00-.6.5v8.5a.5.5 0 00.5.5zm2.6-1h-2V170h2z" fill="#081f4d" fill-rule="evenodd"/><path data-name="Tracé 12713" d="M288.7 156.1a.2.2 0 01-.2 0l-3.4-4.2a.2.2 0 01.1-.4.2.2 0 01.3.1l3.4 4.1a.2.2 0 01-.2.4z" fill="#081f4d"/><path data-name="Tracé 12714" d="M288.5 153.2a.3.3 0 01-.2-.1l-.8-1a.2.2 0 010-.4.2.2 0 01.3 0l.9 1a.3.3 0 010 .3.2.2 0 01-.2.2z" fill="#081f4d"/><path data-name="Tracé 12715" d="M286.4 156a.2.2 0 01-.2 0l-1.8-2.2a.2.2 0 01.1-.4.2.2 0 01.2 0l1.9 2.2a.3.3 0 010 .2.2.2 0 01-.2.3z" fill="#081f4d"/><path data-name="Tracé 12716" d="M279.4 131h1.3a.8.8 0 01.9.8v2.2h-3v-2.2a.8.8 0 01.8-.8z" fill="#f9f9f9"/><path data-name="Tracé 12717" d="M278.5 134.4h3a.4.4 0 00.3-.1.4.4 0 00.1-.3v-2.2a1.2 1.2 0 00-1.2-1.2h-1.3a1.2 1.2 0 00-1.2 1.2v2.2a.4.4 0 00.3.4zm2.7-.8h-2.3v-1.8a.5.5 0 01.5-.5h1.3a.5.5 0 01.5.5z" fill="#081f4d" fill-rule="evenodd"/><path data-name="Tracé 12718" d="M264.3 137.2h-2.5a.3.3 0 110-.5h2.5a.3.3 0 110 .5z" fill="#081f4d"/><path data-name="Tracé 12719" d="M281.7 197.3h-1.5a.3.3 0 010-.5h1.5a.3.3 0 110 .5z" fill="#081f4d"/><path data-name="Tracé 12720" d="M291.8 215h-1a.3.3 0 010-.5h1a.3.3 0 010 .5z" fill="#081f4d"/><path data-name="Tracé 12721" d="M267.5 232.8h-1a.3.3 0 110-.5h1a.3.3 0 010 .5z" fill="#081f4d"/><path data-name="Tracé 12722" d="M280.2 279.9h-1.6a.3.3 0 110-.5h1.6a.3.3 0 110 .5z" fill="#081f4d"/><path data-name="Tracé 12723" d="M70.6 260.3v1.2l-.1 3.8c-.6 9.8-3 18.5-6.4 24.8H38.4c-3.5-6.3-5.8-15-6.4-24.8l-.2-3.8v-1.2l.1-4.1a.8.8 0 01.7-.8H70a.8.8 0 01.6.8l.1 4z" fill="#fff" fill-rule="evenodd"/><path data-name="Tracé 12724" d="M38.4 290.6H64a.5.5 0 00.5-.3 61 61 0 006.5-28.8v-1.2-4.1a1.3 1.3 0 00-1.2-1.3H32.6a1.3 1.3 0 00-1.1 1.3 81 81 0 00-.1 4.1v1.2l.1 3.8a61 61 0 006.4 25 .5.5 0 00.5.3zm25.4-1H38.7a60.6 60.6 0 01-6.4-28.2v-1.1a83.9 83.9 0 01.3-4.4H70l.1.3.1 4v1.2l-.1 3.9c-.6 9.3-2.8 18-6.2 24.3z" fill="#081f4d" fill-rule="evenodd"/><path data-name="Tracé 12728" d="M64.8 261.5h5.8l-.1 3.8H32l-.2-3.8h29" fill="#c7e5fe" fill-rule="evenodd"/><path data-name="Tracé 12729" d="M70.5 265.8H32a.5.5 0 01-.5-.5l-.2-3.8a.5.5 0 01.5-.5h29a.5.5 0 110 1H32.4v2.8H70l.1-2.9h-5.3a.5.5 0 010-1h5.8a.5.5 0 01.5.6l-.1 3.8a.5.5 0 01-.5.5z" fill="#081f4d"/><path data-name="Tracé 12730" d="M44 201.1s-4.9-9-9.6-17.2c-4.6-8-13-18.7-15.2-21.1a.3.3 0 01.2-.4 36 36 0 017.3.5 1.1 1.1 0 01.8.5 7.7 7.7 0 011.1 3.3 18.6 18.6 0 001.6-2.8.4.4 0 01.4-.2A25.1 25.1 0 0145 173.8a1.8 1.8 0 01.3 1.2 19 19 0 01-1.5 6.3 15.3 15.3 0 003-3.3.7.7 0 011.2 0c1.9 3 6 12-4 23.1z" fill="#f7f9fb" fill-rule="evenodd"/><path data-name="Tracé 12732" d="M43.9 201.6a.5.5 0 00.4-.1c4.5-4.9 6.7-10 6.7-15a16.7 16.7 0 00-2.6-8.7 1.2 1.2 0 00-2 0 10 10 0 01-1.4 1.7 27.4 27.4 0 00.8-4.5 2.3 2.3 0 00-.4-1.4 25.4 25.4 0 00-14.7-10.3.9.9 0 00-1 .4 17 17 0 01-.8 1.7 11 11 0 00-1-2.2 1.6 1.6 0 00-1.1-.8 36.8 36.8 0 00-7.4-.5.8.8 0 00-.5 1.2 182.9 182.9 0 0124.6 38.3.5.5 0 00.4.2zm-9.1-18a181.2 181.2 0 00-14.9-20.8 36.2 36.2 0 016.7.5.6.6 0 01.5.3 7.4 7.4 0 011 3.1.5.5 0 001 .3 19.2 19.2 0 001.5-2.8 24.4 24.4 0 0114 9.9 1.3 1.3 0 01.1.8c0 1.3-.5 4.5-1.4 6.1a.5.5 0 00.8.7 15.3 15.3 0 003.2-3.4.2.2 0 01.3 0c2 3.1 5.6 11.5-3.5 22l-9.3-16.7z" fill="#081f4d" fill-rule="evenodd"/><path data-name="Tracé 12733" d="M31.3 171.2a.2.2 0 01-.2-.4c1.7-2.2.7-6.5.7-6.5a.2.2 0 01.5-.1c0 .1 1 4.5-.8 7a.2.2 0 01-.2 0z" fill="#081f4d"/><path data-name="Tracé 12734" d="M34.4 169.1a.2.2 0 01-.2 0 .2.2 0 010-.3c.7-1.5 0-3.6 0-3.6a.2.2 0 11.4-.2c0 .1.8 2.4 0 4a.2.2 0 01-.2.1z" fill="#081f4d"/><path data-name="Tracé 12735" d="M43.7 188.8a.2.2 0 01-.2-.4 9.4 9.4 0 00.5-1.8.3.3 0 01.5 0 9.9 9.9 0 01-.5 2 .2.2 0 01-.3.2z" fill="#081f4d"/><path data-name="Tracé 12736" d="M39.8 194.3a.2.2 0 01-.1-.4 16 16 0 003.4-4.5.2.2 0 11.4.2 16.1 16.1 0 01-3.5 4.7.2.2 0 01-.2 0z" fill="#081f4d"/><path data-name="Tracé 12737" d="M42.9 194.3a.2.2 0 01-.1-.4A3.6 3.6 0 0044 192a.2.2 0 11.5.2 4 4 0 01-1.5 2 .2.2 0 01-.1 0z" fill="#081f4d"/><path data-name="Tracé 12738" d="M49 256a.5.5 0 01-.4-.5c-.2-7.9-.1-17.5-.1-24.5v-4.5c0-11.4-5-25.1-5-25.3a.5.5 0 111-.3c0 .1 5 14 5 25.6v29a.5.5 0 01-.4.5z" fill="#081f4d"/><path data-name="Tracé 12739" d="M84.2 210.6H84c-4.7 3.7-10.3 7-14.6 11.2a75 75 0 00-10.2 12.8c-7.4-9.4-2.5-17.5-2-18.4l3.1 4.4c-1.5-2.2-1.3-6.4-1.2-7.5a1.5 1.5 0 01.2-.6c1.2-2.5 4.3-5 5.4-5.8a.2.2 0 01.4.2 7 7 0 002.3 5.4c-.8-1.2-.3-5.5-.1-7a1.3 1.3 0 01.5-1c5.2-4 15-5.8 19.1-4 4.1 1.9 2.4 6.3-2.7 10.3z" fill="#f7f9fb" fill-rule="evenodd"/><path data-name="Tracé 12740" d="M58.8 235a.5.5 0 00.4.1.5.5 0 00.4-.2 61 61 0 0120-20.4l.2-.1 4.6-3.3.1-.1c3.6-2.8 5.5-5.7 5.2-8a3.9 3.9 0 00-2.6-3.1c-4.4-2-14.5 0-19.6 4a1.8 1.8 0 00-.7 1.3 32.4 32.4 0 00-.3 5.2 7.5 7.5 0 01-.9-3.5.8.8 0 00-.4-.6.7.7 0 00-.8 0c-1.2 1-4.3 3.4-5.6 6a2 2 0 00-.2.7 20.8 20.8 0 00.2 4.5l-1.1-1.5a.6.6 0 00-.5-.3.5.5 0 00-.4.3c-.6.9-5.6 9.3 2 19zm.3-1.3c-5.7-7.8-3-14.5-1.8-16.6l2.6 3.8a.5.5 0 00.8-.6c-1-1.6-1.3-4.8-1-7.2a1 1 0 010-.3c1.1-2.2 3.7-4.4 5-5.4a7.4 7.4 0 002.4 5.3.5.5 0 00.7-.6c-.4-.7-.5-3.4 0-6.8a.8.8 0 01.3-.5c5.1-4.1 14.9-5.7 18.6-4a3 3 0 012 2.3c.2 2-1.6 4.6-4.8 7l-.2.2a151 151 0 01-4.8 3.4 61.6 61.6 0 00-19.8 20z" fill="#081f4d" fill-rule="evenodd"/><g data-name="Groupe 19788"><path data-name="Tracé 12741" d="M84.2 210.6H84c-4.7 3.7-10.3 7-14.6 11.2A75 75 0 0059 234.6s-.6-12.3 10.3-19.5a25.8 25.8 0 0114.8-4.5z" fill="#c7e5fe" fill-rule="evenodd" opacity=".1"/></g><path data-name="Tracé 12742" d="M59 235a.5.5 0 00.2 0 .5.5 0 00.4-.1 61 61 0 0119.9-20.4l.2-.1 4.6-3.3.2-.2a.5.5 0 00-.3-.8 26.4 26.4 0 00-15 4.6 24 24 0 00-10.5 20 .5.5 0 00.3.4zm23.7-24zm0 0a26 26 0 00-13 4.5 22.6 22.6 0 00-10 17.3 75.5 75.5 0 019.3-11.4 77.3 77.3 0 0110-7.7l.9-.6 2.8-2z" fill="#081f4d" fill-rule="evenodd"/><path data-name="Tracé 12743" d="M57.3 256a.5.5 0 01-.5-.6 99.3 99.3 0 012-21 .5.5 0 011 .3 97.7 97.7 0 00-2 20.7.5.5 0 01-.5.5z" fill="#081f4d"/><path data-name="Tracé 12744" d="M63 216.6a.2.2 0 01-.3-.1 12.4 12.4 0 01-1-5 .3.3 0 11.5 0 12 12 0 001 4.8.2.2 0 01-.3.3z" fill="#081f4d"/><path data-name="Tracé 12745" d="M77 207.8a.2.2 0 01-.2-.2 14.7 14.7 0 01-.3-2.4.3.3 0 01.5 0 14 14 0 00.3 2.3.2.2 0 01-.2.3z" fill="#081f4d"/><path data-name="Tracé 12746" d="M76.8 204.4a.2.2 0 01-.3-.2 8.4 8.4 0 011-4 .2.2 0 11.5.3 8.3 8.3 0 00-1 3.7.2.2 0 01-.2.2z" fill="#081f4d"/><path data-name="Tracé 12747" d="M73 206a.2.2 0 01-.2-.3 9.9 9.9 0 01.6-4.5.2.2 0 11.4.2 9.7 9.7 0 00-.5 4.2.2.2 0 01-.2.3z" fill="#081f4d"/><path data-name="Tracé 12748" d="M79.6 205.5a.2.2 0 01-.2-.2 2.6 2.6 0 010-1.9.2.2 0 11.4.2 2.2 2.2 0 000 1.5.2.2 0 01-.2.4z" fill="#081f4d"/><path data-name="Tracé 12749" d="M63 187.2l4.5-1.5a.2.2 0 01.2.2 26.8 26.8 0 01-13 17.2c-13.7-16.8-2.6-40.8-1-44a.2.2 0 01.4 0l3.1 5.6-.8-7.5a1 1 0 01.3-.8 24.2 24.2 0 017.8-5.4s7.7 10.5 4 30a58 58 0 01-5.6 6.2z" fill="#c7e5fe" fill-rule="evenodd"/><path data-name="Tracé 12750" d="M54.2 203.4a.5.5 0 00.4.2.5.5 0 00.2 0A27.3 27.3 0 0068.2 186a.7.7 0 00-.9-.7l-2.6.8a56.2 56.2 0 004.1-4.8.5.5 0 000-.2c2-10.2.9-17.9-.4-22.6a26 26 0 00-3.5-7.8.5.5 0 00-.5-.1 24.6 24.6 0 00-8 5.4 1.5 1.5 0 00-.5 1.2l.6 5-2-3.4a.7.7 0 00-.6-.4.7.7 0 00-.6.4A61.5 61.5 0 0048 176c-1.7 11.1.4 20.3 6.2 27.5zM49 176.1a60.7 60.7 0 015-16.4l2.9 5.3a.5.5 0 001-.3l-.9-7.6a.5.5 0 01.2-.4 23.8 23.8 0 017.3-5 27.8 27.8 0 013 7.2c1.3 4.5 2.4 12 .5 22a59.4 59.4 0 01-5.3 6 .5.5 0 00.5.8l4-1.3a26.3 26.3 0 01-12.4 16 33 33 0 01-5.8-26.3z" fill="#081f4d" fill-rule="evenodd"/><path data-name="Tracé 12751" d="M53.2 256a.5.5 0 01-.5-.4 248 248 0 011.4-52.6c-.2-7.3 1.8-18.3 3.5-26.1 2-8.6 3.9-15.5 3.9-15.5a.5.5 0 011 .2s-2 7-3.9 15.5a119.5 119.5 0 00-3.5 26 246.8 246.8 0 00-1.4 52.4.5.5 0 01-.5.5z" fill="#081f4d"/><path data-name="Tracé 12752" d="M63.2 166.5a.2.2 0 01-.1-.4 16.7 16.7 0 005.2-4.7.2.2 0 01.4.3 17 17 0 01-5.4 4.8.2.2 0 01-.1 0z" fill="#081f4d"/><path data-name="Tracé 12753" d="M63.2 170.7a.2.2 0 010-.5s4.3-1.5 5.7-4.7a.2.2 0 11.4.2c-1.4 3.4-5.8 4.9-6 5a.3.3 0 01-.1 0z" fill="#081f4d"/><path data-name="Tracé 12754" d="M57.9 193.6a.2.2 0 01-.1-.4 18.7 18.7 0 004-2.9.2.2 0 11.4.3 18.8 18.8 0 01-4.2 3 .2.2 0 01-.1 0z" fill="#081f4d"/><path data-name="Tracé 12755" d="M56.6 184.8a.2.2 0 01-.1 0c-1.2-.8-2.2-2.2-3.1-4.4a.2.2 0 11.5-.2 8.6 8.6 0 002.9 4.1.2.2 0 01-.2.5z" fill="#081f4d"/><path data-name="Tracé 12756" d="M53 178.8a.2.2 0 01-.2-.2l-.6-2.3a.3.3 0 11.5-.1l.6 2.3a.2.2 0 01-.2.3z" fill="#081f4d"/><path data-name="Tracé 12757" d="M52.4 187.2a.2.2 0 01-.1 0c-2.6-1.8-4.5-7.6-4.6-7.8a.2.2 0 11.5-.2s2 6 4.4 7.6a.2.2 0 01-.2.4z" fill="#081f4d"/><path data-name="Tracé 12758" d="M41.1 224.5l3-2.8a.1.1 0 01.3 0 23 23 0 01-4 18.1c-16.6-8.1-16.6-30.8-16.5-34a.2.2 0 01.3 0l4.4 3.2-3.3-5.5a.9.9 0 010-.8 20.7 20.7 0 014.1-7s9.7 5.4 13.8 22a49.7 49.7 0 01-2 6.8z" fill="#c7e5fe" fill-rule="evenodd"/><path data-name="Tracé 12759" d="M40.2 240.2a.5.5 0 00.6-.1 23.4 23.4 0 004-18.4.6.6 0 00-1-.4l-1.5 1.4a46 46 0 001.4-5 .5.5 0 000-.1c-4.2-16.6-13.7-22-14-22.3a.5.5 0 00-.7.1 21 21 0 00-4.3 7.2 1.4 1.4 0 00.2 1.2l2 3.3-2.4-1.8a.7.7 0 00-1.1.6 52.6 52.6 0 002 15.2 29 29 0 0014.8 19.1zm-13.8-19.4a51.9 51.9 0 01-2-14.3l4 3a.5.5 0 00.7-.7l-3.4-5.6a.4.4 0 010-.3 20.3 20.3 0 013.8-6.5 24 24 0 014.9 4.5 40.8 40.8 0 018.3 16.8 50.5 50.5 0 01-2 6.6.5.5 0 00.8.5l2.5-2.3a22.4 22.4 0 01-3.7 16.7 28.2 28.2 0 01-14-18.4z" fill="#081f4d" fill-rule="evenodd"/><path data-name="Tracé 12760" d="M43.3 256a.5.5 0 01-.5-.5A87.2 87.2 0 0040 240a169.6 169.6 0 01-9.3-35 .5.5 0 011-.2c0 .2 3.9 24 9.2 34.8a87.9 87.9 0 013 15.8.5.5 0 01-.5.5z" fill="#081f4d"/><path data-name="Tracé 12761" d="M34 208.3a.2.2 0 01-.3-.4 14.3 14.3 0 002.4-5.4.3.3 0 01.5 0 14.5 14.5 0 01-2.5 5.7.2.2 0 01-.2.1z" fill="#081f4d"/><path data-name="Tracé 12762" d="M35.4 211.5a.3.3 0 01-.2-.4s2.9-2.7 2.8-5.7a.3.3 0 11.5 0c0 3.2-2.8 6-3 6a.2.2 0 01-.1.1z" fill="#081f4d"/><path data-name="Tracé 12763" d="M39.5 231.3a.2.2 0 01-.2-.4 16 16 0 002-3.7.2.2 0 11.5.2 16.5 16.5 0 01-2.1 3.8.2.2 0 01-.2.1z" fill="#081f4d"/><path data-name="Tracé 12764" d="M35.3 225a7.6 7.6 0 01-4-2.4.2.2 0 11.3-.4 7.3 7.3 0 003.7 2.2.3.3 0 010 .5z" fill="#081f4d"/><path data-name="Tracé 12765" d="M30.3 221.5a.2.2 0 01-.1 0 20.5 20.5 0 01-1.4-1.6.2.2 0 01.4-.3l1.3 1.5a.2.2 0 01-.2.4z" fill="#081f4d"/><path data-name="Tracé 12766" d="M33 228.3h-.1c-2.6-.4-6.3-4.3-6.4-4.4a.2.2 0 11.3-.4s3.7 4 6.2 4.3a.3.3 0 010 .5z" fill="#081f4d"/><path data-name="Tracé 12767" d="M41.5 255.7a.2.2 0 01-.3-.1 21.3 21.3 0 00-5.6-6 .3.3 0 01.3-.4 21.7 21.7 0 015.8 6.2.2.2 0 01-.2.3z" fill="#081f4d"/><path data-name="Tracé 12768" d="M34.8 248.9a.2.2 0 01-.2 0 19.5 19.5 0 00-1.7-1.1.3.3 0 11.3-.5l1.7 1.1a.2.2 0 01-.1.5z" fill="#081f4d"/><path data-name="Tracé 12769" d="M60.2 255.7a.2.2 0 01-.2-.3s1.5-6.5 6.9-9.4a.2.2 0 01.2.5c-5.2 2.8-6.6 9-6.7 9a.2.2 0 01-.2.2z" fill="#081f4d"/><path data-name="Tracé 12770" d="M47.8 255.7a.2.2 0 01-.3-.2 19.3 19.3 0 00-2.4-7.8.2.2 0 11.4-.3c0 .1 1.9 2.7 2.5 8a.2.2 0 01-.2.3z" fill="#081f4d"/><path data-name="Tracé 12771" d="M63 255.7a.2.2 0 01-.1-.4s1.7-2.3 2.8-2.7a.2.2 0 11.2.4 9.8 9.8 0 00-2.6 2.6.2.2 0 01-.2.1z" fill="#081f4d"/><path data-name="Tracé 12772" d="M201.4 177a1.1 1.1 0 00-1.5-1 42 42 0 00-23.2 18.2 54.8 54.8 0 00-9 23.3 1 1 0 00.9 1c2.8.2 11.6-.6 22.5-13.6 11-13 10.8-24.1 10.3-27.9z" fill="#c7e5fe" fill-rule="evenodd"/><path data-name="Tracé 12773" d="M169.2 219c3.7 0 12-1.5 22.3-13.8 10.9-13 10.9-24 10.4-28.3a1.6 1.6 0 00-2.2-1.3c-5.7 2-14.3 5-23.4 18.3a55.1 55.1 0 00-9 23.5 1.4 1.4 0 001.3 1.6h.6zm30.9-42.5a.6.6 0 01.2 0 .7.7 0 01.3.1.6.6 0 01.3.5c.5 4 .5 14.8-10.1 27.5-2.8 3.3-12.6 14-22.2 13.5a.4.4 0 01-.3-.2.4.4 0 010-.3 54.2 54.2 0 018.8-23.1c9-13 17.4-16 23-18z" fill="#081f4d" fill-rule="evenodd"/><path data-name="Tracé 12774" d="M196 183.5a.2.2 0 01-.1-.4c2-2.7 3-4.7 4.2-6.6l.3-.6a.2.2 0 01.5.3l-.4.6c-1.1 2-2.3 3.9-4.2 6.6a.2.2 0 01-.2.1z" fill="#081f4d"/><path data-name="Tracé 12775" d="M168.1 218.6a.2.2 0 01-.1-.4c.2-.2 5.6-5 10.2-6.5a2.8 2.8 0 001.5-1.3 364 364 0 0115.1-25.6.2.2 0 01.5.3c-6 8.9-13.2 21.8-15.2 25.5a3.3 3.3 0 01-1.8 1.5c-4.4 1.6-10 6.4-10 6.5a.3.3 0 01-.2 0z" fill="#081f4d"/><path data-name="Tracé 12776" d="M250.8 243.1a2.5 2.5 0 01-2.5 2.5h-51.2a2.5 2.5 0 010-5h51.2a2.5 2.5 0 012.5 2.5z" fill="#f7f9fb" fill-rule="evenodd"/><path data-name="Tracé 12777" d="M197.1 246.1h51.2a3 3 0 100-6h-51.1a3 3 0 100 6zm-2-3a2 2 0 012-2h51.2a2 2 0 110 4h-51.1a2 2 0 01-2-2z" fill="#081f4d" fill-rule="evenodd"/><path data-name="Tracé 12778" d="M211 245.5l-2 10.8-6.5 33.8h-3.7l5.9-44.6z" fill="#f7f9fb" fill-rule="evenodd"/><path data-name="Tracé 12779" d="M198.8 290.6h3.7a.5.5 0 00.5-.4l8.5-44.6a.5.5 0 00-.5-.6h-6.3a.5.5 0 00-.5.5l-6 44.5a.5.5 0 00.2.4.5.5 0 00.4.2zm3.3-1h-2.8l5.8-43.6h5.3z" fill="#081f4d" fill-rule="evenodd"/><path data-name="Tracé 12780" d="M246.8 290.1H243l-6.5-33.8-2.1-10.8h6.3z" fill="#f7f9fb" fill-rule="evenodd"/><path data-name="Tracé 12781" d="M243 290.6h3.8a.5.5 0 00.3-.2.5.5 0 00.1-.4l-5.9-44.5a.5.5 0 00-.5-.5h-6.3a.5.5 0 00-.4.2.5.5 0 00-.1.4l8.5 44.6a.5.5 0 00.5.4zm3.2-1h-2.7L235 246h5.3z" fill="#081f4d" fill-rule="evenodd"/><path data-name="Tracé 12782" d="M236.6 256.4h-27.7l2-10.8h23.6z" fill="#f7f9fb" fill-rule="evenodd"/><path data-name="Tracé 12783" d="M209 256.8h27.6a.5.5 0 00.5-.5l-2-10.8a.5.5 0 00-.6-.4H211a.5.5 0 00-.5.4l-2 10.8a.5.5 0 000 .4.5.5 0 00.4.1zm27-1h-26.5l1.9-9.7h22.7z" fill="#081f4d" fill-rule="evenodd"/><path data-name="Tracé 12784" d="M224.1 252.5a.2.2 0 01-.1 0l-3-3.6a.2.2 0 01.4-.3l3 3.5a.2.2 0 01-.3.4z" fill="#081f4d"/><path data-name="Tracé 12785" d="M224 250a.2.2 0 01-.2 0l-.8-1a.2.2 0 010-.2.2.2 0 01.4 0l.7.8a.3.3 0 010 .3.3.3 0 01-.2.1z" fill="#081f4d"/><path data-name="Tracé 12786" d="M222.2 252.4a.2.2 0 01-.2 0l-1.6-1.9a.2.2 0 11.4-.3l1.6 1.8a.2.2 0 01-.2.4z" fill="#081f4d"/><path data-name="Tracé 12787" d="M202.8 270.4h-1.4a.3.3 0 010-.5h1.4a.3.3 0 010 .5z" fill="#081f4d"/><path data-name="Tracé 12788" d="M241.2 248.4H239a.3.3 0 110-.5h2.2a.3.3 0 110 .5z" fill="#081f4d"/><path data-name="Tracé 12789" d="M222.7 244h-28a.3.3 0 010-.6h28a.3.3 0 110 .5z" fill="#081f4d"/><path data-name="Tracé 12790" d="M228.2 210.5a.2.2 0 01-.1 0 .2.2 0 01-.1-.1.2.2 0 010-.2 2 2 0 000-1.8 4.9 4.9 0 00-.7-.8c-.8-.8-2-2-1.7-3 .2-.7 1-1.2 2.3-1.6a9.2 9.2 0 002.4-1 4.6 4.6 0 002.2-3 4.7 4.7 0 00-.8-3.8.2.2 0 01.4-.3 5.1 5.1 0 01-1.6 7.6 9.6 9.6 0 01-2.5 1c-1.1.3-1.8.7-2 1.2-.1.8 1 1.8 1.6 2.5a4.7 4.7 0 01.8 1 2.5 2.5 0 010 2.2.2.2 0 01-.2.1z" fill="#081f4d"/><path data-name="Tracé 12791" d="M227.1 199.6a2.8 2.8 0 01-1.2-.3 2.6 2.6 0 01-1.4-2 3.4 3.4 0 011-3.2 4.3 4.3 0 014-.8 5.3 5.3 0 011.1.4.3.3 0 11-.2.5 4.5 4.5 0 00-1-.4 3.8 3.8 0 00-3.6.7 2.9 2.9 0 00-.8 2.7 2.2 2.2 0 001 1.7c1.4.6 3.2-.3 3.2-.3a.2.2 0 11.3.4 5.9 5.9 0 01-2.4.6z" fill="#081f4d"/><path data-name="Tracé 12792" d="M236.4 219.4l-.1 1.1-.1 1a15.9 15.9 0 01-.4 1.7v.1l-.4 1.5a16.2 16.2 0 01-.7 1.7 15.4 15.4 0 01-.8 1.4l-1 1.7a.4.4 0 01-.3.2H225a.4.4 0 01-.3-.2l-1-1.7a17.3 17.3 0 01-1.9-4.6v-.1a16.6 16.6 0 01-.3-1.7l-.1-1-.2-1z" fill="#fff" fill-rule="evenodd"/><path data-name="Tracé 12793" d="M225 230.3h7.6a.9.9 0 00.8-.5l1-1.6.8-1.5a16.5 16.5 0 00.7-1.8l.4-1.4v-.1a.3.3 0 000-.1 16.8 16.8 0 00.4-1.7l.1-1 .1-1v-.1a.5.5 0 00-.5-.6h-15.3a.5.5 0 00-.4.2.5.5 0 000 .4l.2 2a16.7 16.7 0 00.3 1.8v.2a17.7 17.7 0 002 4.7l1 1.6a.9.9 0 00.7.5zm7.6-1H225l-1-1.6a16.8 16.8 0 01-1.8-4.5v-.1a15.8 15.8 0 01-.3-1.7l-.2-1.5h14.2v.6l-.2 1a16.6 16.6 0 01-.3 1.6v.1l-.5 1.4a14.9 14.9 0 01-.6 1.7 15.3 15.3 0 01-.8 1.4z" fill="#081f4d" fill-rule="evenodd"/><path data-name="Tracé 12794" d="M240.9 222.8a4.2 4.2 0 01-6.2 3.7 15.1 15.1 0 00.7-1.7 2.4 2.4 0 10.9-4.3l.1-1 .1-.8h.2a4.2 4.2 0 014.2 4.2z" fill="#fff" fill-rule="evenodd"/><path data-name="Tracé 12795" d="M234.4 227a4.7 4.7 0 002.3.5 4.7 4.7 0 100-9.3h-.2a.5.5 0 00-.5.4l-.2 1.9a.5.5 0 00.6.5 2 2 0 01.3 0 1.9 1.9 0 110 3.7 1.8 1.8 0 01-1-.3.5.5 0 00-.8.2 15.2 15.2 0 01-.7 1.7.5.5 0 00.2.6zm4.9-1.5a3.7 3.7 0 01-4 .7l.3-.7a2.8 2.8 0 101.3-5.5v-.8a3.7 3.7 0 012.4 6.3z" fill="#081f4d" fill-rule="evenodd"/><path data-name="Tracé 12796" d="M236.9 216.5l-.3 2.2-.1.8H221l-.1-.8-.3-2.2a.2.2 0 01.2-.3h15.7a.3.3 0 01.3.3z" fill="#c7e5fe" fill-rule="evenodd"/><path data-name="Tracé 12797" d="M221 220h15.4a.5.5 0 00.5-.5l.4-3a.8.8 0 00-.7-.8h-15.7a.8.8 0 00-.7.8l.4 3a.5.5 0 00.5.4zm15-1h-14.5l-.3-2.3h15.1z" fill="#081f4d" fill-rule="evenodd"/><path data-name="Tracé 12798" d="M209.2 232.7a3.5 3.5 0 00-1 2.5 3.5 3.5 0 003.6 3.4H246a1 1 0 011 1 1 1 0 01-.9 1h-34.6a5.5 5.5 0 01-5.5-5.3 5.4 5.4 0 015.4-5.5H246a1 1 0 011 1 .9.9 0 01-.9.9h-34.4a3.5 3.5 0 00-2.5 1z" fill="#ffe17f" fill-rule="evenodd"/><path data-name="Tracé 12799" d="M211.5 241h34.6a1.4 1.4 0 001.4-1.4 1.5 1.5 0 00-1.5-1.5h-34.2a3 3 0 01-3.1-3 3 3 0 013-3H246a1.4 1.4 0 001.4-1.3 1.5 1.5 0 00-1.5-1.5h-34.6a5.9 5.9 0 00-5.9 6 6 6 0 006 5.7zm-3.6-9.3a4.9 4.9 0 013.5-1.4H246a.5.5 0 01.5.5.4.4 0 01-.4.4h-34.4a4 4 0 00-4 4 4 4 0 004 4H246a.5.5 0 01.5.4.4.4 0 01-.4.4h-34.6a5 5 0 01-5-4.8 4.9 4.9 0 011.4-3.5z" fill="#081f4d" fill-rule="evenodd"/><path data-name="Tracé 12800" d="M245.6 231.7v7h-34a3.4 3.4 0 01-3.4-3.6 3.5 3.5 0 011-2.4 3.3 3.3 0 012.4-1z" fill="#fff"/><path data-name="Tracé 12801" d="M211.5 239.1h34a.5.5 0 00.6-.5v-7a.5.5 0 00-.5-.4h-34a3.8 3.8 0 00-2.8 1.2 4 4 0 00-1.1 2.8 4 4 0 003.8 4zm-2-6a2.8 2.8 0 012-1h33.6v6h-33.6a3 3 0 01-2.8-3 3 3 0 01.8-2z" fill="#081f4d" fill-rule="evenodd"/><path data-name="Tracé 12802" d="M226.3 234.6v3l-1.5-1.4-1.6 1.5v-3.1z" fill="#081f4d" fill-rule="evenodd"/><path data-name="Tracé 12803" d="M226 238a.5.5 0 00.8-.3v-3.1a.5.5 0 00-.5-.5h-3.1a.5.5 0 00-.5.5v3a.5.5 0 00.8.5l1.3-1.2zm-.9-2.1a.5.5 0 00-.7 0l-.7.7V235h2.1v1.5z" fill="#081f4d" fill-rule="evenodd"/><path data-name="Tracé 12804" d="M230.5 234.6h-1a.3.3 0 010-.5h1a.3.3 0 010 .5z" fill="#081f4d"/><path data-name="Tracé 12805" d="M228.7 234.6h-7a.3.3 0 010-.5h7a.3.3 0 110 .5z" fill="#081f4d"/><path data-name="Tracé 12806" d="M209.9 235.3a.2.2 0 01-.3-.3 2.1 2.1 0 01.6-1.6.2.2 0 01.4 0 .2.2 0 010 .3 1.6 1.6 0 00-.5 1.3.2.2 0 01-.2.3z" fill="#081f4d"/><path data-name="Tracé 12807" d="M263.4 287.5H229a3.3 3.3 0 01-3.5-3.2 3 3 0 011-2.2 3.6 3.6 0 012.5-1h34.3a1.3 1.3 0 000-2.5H228a5.7 5.7 0 00-5.7 5.9 5.8 5.8 0 005.8 5.6h35.4a1.3 1.3 0 000-2.6z" fill="#c7e5fe" fill-rule="evenodd"/><path data-name="Tracé 12808" d="M228 290.5h35.4a1.7 1.7 0 000-3.4H229a3 3 0 01-3-2.8 2.6 2.6 0 01.8-2 3.2 3.2 0 012.2-.7h34.4a1.7 1.7 0 100-3.4h-35.5a6.2 6.2 0 00-6.1 6.3 6.3 6.3 0 006.2 6zm-3.9-9.9a5.3 5.3 0 013.8-1.6h35.5a.8.8 0 110 1.7H229a4 4 0 00-2.8 1 3.5 3.5 0 00-1.1 2.6 3.8 3.8 0 003.9 3.7h34.4a.8.8 0 010 1.6H228a5.4 5.4 0 01-5.4-5.2 5.3 5.3 0 011.5-3.8z" fill="#081f4d" fill-rule="evenodd"/><path data-name="Tracé 12809" d="M263 281.1v6.4H229a3.3 3.3 0 01-3.4-3.2 3.1 3.1 0 011-2.2 3.4 3.4 0 012.4-1z" fill="#fff"/><path data-name="Tracé 12810" d="M228.9 288H263a.4.4 0 00.4-.5v-6.4a.4.4 0 00-.4-.4h-34.2a3.9 3.9 0 00-2.7 1 3.5 3.5 0 00-1.1 2.6 3.7 3.7 0 003.8 3.7zm-2.1-5.6a3 3 0 012-.8h33.9v5.5h-33.8a2.9 2.9 0 01-3-2.8 2.7 2.7 0 01.9-2z" fill="#081f4d" fill-rule="evenodd"/><path data-name="Tracé 12811" d="M239 283.7h-5.4a.3.3 0 010-.5h5.3a.3.3 0 010 .5z" fill="#081f4d"/><path data-name="Tracé 12812" d="M241.5 283.7h-1a.3.3 0 010-.5h1a.3.3 0 010 .5z" fill="#081f4d"/><path data-name="Tracé 12813" d="M271.3 276.3l-32-.4a3.2 3.2 0 110-6.4l32 .4a1.2 1.2 0 001.3-1.2 1.3 1.3 0 00-.4-1 1.1 1.1 0 00-.8-.3l-33-.4a5.2 5.2 0 00-3.8 1.6 6 6 0 00-1.7 4.1 5.6 5.6 0 005.4 5.7l33 .5a1.2 1.2 0 001.2-1.3 1.3 1.3 0 00-.4-.9 1.1 1.1 0 00-.8-.4z" fill="#1e96fc" fill-rule="evenodd"/><path data-name="Tracé 12814" d="M271.2 279.3a1.5 1.5 0 001.2-.5 1.8 1.8 0 000-2.4 1.6 1.6 0 00-1.1-.5l-32-.4a2.8 2.8 0 01-2.8-2.8 2.7 2.7 0 01.8-2 2.8 2.8 0 012-.8l32 .4a1.7 1.7 0 001.7-1.6 1.7 1.7 0 00-.5-1.2 1.6 1.6 0 00-1.1-.5l-33-.5a5.6 5.6 0 00-4.2 1.8 6.4 6.4 0 00-1.7 4.4 6 6 0 005.8 6.2zM235 268.9a4.7 4.7 0 013.4-1.5l33.1.4a.7.7 0 01.5.2.9.9 0 01.2.6.8.8 0 01-.7.9l-32-.5a3.7 3.7 0 00-2.7 1 3.6 3.6 0 00-1 2.6 3.6 3.6 0 003.5 3.7l32.1.4a.7.7 0 01.5.3.9.9 0 01.2.6.9.9 0 01-.2.6.7.7 0 01-.5.2l-33-.4a5.2 5.2 0 01-5-5.3 5.5 5.5 0 011.6-3.8z" fill="#081f4d" fill-rule="evenodd"/><path data-name="Tracé 12815" d="M271.3 270l-.1 6.3-32-.4a3.2 3.2 0 01-3.2-3.2 3.2 3.2 0 011-2.3 3.1 3.1 0 012.2-.9z" fill="#fff"/><path data-name="Tracé 12816" d="M239.1 276.3l32 .5a.4.4 0 00.5-.5l.1-6.4a.4.4 0 00-.1-.3.4.4 0 00-.3-.1l-32-.4a3.5 3.5 0 00-2.6 1 3.7 3.7 0 00-1 2.6 3.6 3.6 0 003.4 3.6zm-1.8-5.6a2.7 2.7 0 011.9-.8l31.6.5v5.5l-31.7-.4a2.7 2.7 0 01-2.6-2.8 2.8 2.8 0 01.8-2z" fill="#081f4d" fill-rule="evenodd"/><path data-name="Tracé 12817" d="M248.5 272.2h-4.9a.3.3 0 010-.6l5 .1a.3.3 0 110 .5z" fill="#081f4d"/><path data-name="Tracé 12818" d="M251 272.2h-1a.3.3 0 110-.5h1a.3.3 0 110 .5z" fill="#081f4d"/><path data-name="Tracé 12819" d="M149.9 148.2l2.8.8a72 72 0 017.6 2.6l.5.2.4.2a34 34 0 014.3 2.3l.2.1.7.5a15.6 15.6 0 012 1.7l.4.4a6.4 6.4 0 01.4.5l.4.6a16.9 16.9 0 011 1.8 29 29 0 011 2l.3 1.2.4 1 .3 1.1.2.6.2.5.2 1 .4 1.5.1.5v.3l.3 1 .3 1.7.1.5.2 1v.5l.3 1.1h-12.7l-1.3 27.7h-35.5l-2-27.7h-12.7l.1-1 .1-.6.2-1 .2-1.1.1-.5.2-.7.2-1 .3-1.5.2-.5v-.2l.3-1 .4-1.4.1-.5a15.2 15.2 0 01.5-1.3l.7-1.9.2-.4.5-1a15 15 0 011.3-2.2v-.1l.4-.5.4-.4a16.6 16.6 0 012.6-2l.3-.3c.2 0 .3-.2.5-.3a26.3 26.3 0 015.5-2.7l.6-.2.5-.2a56 56 0 015.8-2l2.8-.7s1.7 1.2 7.2 1.3 7-1.3 7-1.3z" fill="#ffc300" fill-rule="evenodd"/><rect data-name="Rectangle 3505" width="34.6" height="24.4" rx="6" transform="translate(125.4 176.4)" fill="#f7f9fb"/><path data-name="Tracé 12820" d="M136 147.8c.3.2 2.2 1.2 6.9 1.2h.1c4.6 0 6.2-1 6.5-1.1a.5.5 0 01.5-.1l.8.2a70.7 70.7 0 015.4 1.6h.3a56.3 56.3 0 014 1.6l.4.1.1.1.3.1h.1a36.6 36.6 0 014.4 2.4l.1.1.7.5a16.6 16.6 0 012.1 1.8l.4.4a6.7 6.7 0 01.5.5l.2.4.2.2a17.8 17.8 0 011 1.9l.5 1 .2.6.1.2.1.3.5 1.2.3 1 .2.6.2.5v.2l.2.4v.1l.1.4.2.8v.2l.4 1.2V168.7l.1.3v.2l.1.2v.1l.3 1 .2 1.4.1.3.1.5v.4l.2.6v.6l.2 1a.5.5 0 01-.5.6h-12.1l-1.4 27.2a.5.5 0 01-.4.5h-35.5a.5.5 0 01-.5-.5l-2-27.2h-12.2a.5.5 0 01-.5-.6l.1-1 .1-.6.2-.6v-.4l.2-.8v-.6l.1-.2.2-.7.1-.6.2-.8a31 31 0 01.4-1.7v-.1l.2-.6v-.4l.5-1.4.2-.5v-.4a45 45 0 011-2.7l.2-.1.1-.4v-.2l.2-.2.3-.6a15.7 15.7 0 011.4-2.4l.5-.6.2-.3.2-.1a16.9 16.9 0 012.6-2.2l.3-.2c.2 0 .3-.2.5-.3a31.4 31.4 0 015.3-2.6l.3-.1.4-.2.5-.2h.2l2.1-.8.6-.2 3.1-1 .5-.1a83 83 0 012.4-.6.5.5 0 01.3 0zm-.3 1h-.4l-2 .6-.4.1a79.7 79.7 0 00-6 2l-.5.2h-.2a43.3 43.3 0 00-5.3 2.7h-.2l-.2.2-.2.1a9 9 0 00-.3.2 15.8 15.8 0 00-2.5 2l-.3.4-.4.5a14.6 14.6 0 00-1.3 2v.3l-.4.6-.1.3a19.1 19.1 0 00-1 2.3 45.1 45.1 0 00-.3 1.2l-.2.5-.4 1.3v.2l-.3.9v.2l-.1.3v.2l-.2.5a88 88 0 00-.4 2v.3l-.2.6v.2l-.2.6v.6l-.2 1-.1.5v.3l-.1.2h12a.5.5 0 01.5.4L125 190v-10.5a3.4 3.4 0 013.5-3.5H157a3.4 3.4 0 013.4 3.5v18.5a3.4 3.4 0 01-3.4 3.4h-28.7a3.4 3.4 0 01-2.7-1.3l.2 2.6h34.5l1.4-27.2a.5.5 0 01.4-.5h12.1v-.5l-.2-.5a53 53 0 000-.6l-.1-.4-.1-.5a51.5 51.5 0 00-.4-1.8l-.2-.9v-.1-.2l-.1-.4c-.1-.5-.2-1-.4-1.3v-.4l-.2-.5v-.3l-.1-.3v-.1l-.2-.4v-.3l-.5-1.2-.3-1-.1-.3-.2-.6-.1-.2-.2-.4-.3-.7-.2-.4-.2-.4v-.1a16.2 16.2 0 00-1-1.8l-.2-.3-.1-.1a6.1 6.1 0 00-.4-.5l-.4-.4a15.2 15.2 0 00-2-1.7 20 20 0 00-.5-.4l-.3-.2a27.5 27.5 0 00-4.2-2.2l-.4-.2h-.2l-.3-.2a38 38 0 00-1.1-.5h-.3l-2.3-.9-.3-.1-3.6-1.1-.6-.2-1.9-.5h-.2c-.7.4-2.5 1.1-6.6 1.2h-.4c-4.6 0-6.6-1-7.2-1.2zm-7.3 28.1H157a2.5 2.5 0 012.4 2.5v18.5a2.5 2.5 0 01-2.4 2.4h-28.7a2.5 2.5 0 01-2.5-2.4v-18.5a2.5 2.5 0 012.5-2.5z" fill="#081f4d" fill-rule="evenodd"/><path data-name="Tracé 12821" d="M155 127.4c.2-2 .4-7.2-1.7-10.6a11 11 0 00-3.1-3.4l-.3-.1-.3-.2a12.7 12.7 0 00-6.8-1.7 11.7 11.7 0 00-10.5 5.4c-2.2 3.4-1.9 8.8-1.7 10.6v.2a1.4 1.4 0 010 .1.2.2 0 000 .1.3.3 0 000 .2v.1a1 1 0 010 .2l.1.5v.5l.1.2a6.6 6.6 0 00.1.7.7.7 0 010 .1 4 4 0 00.1.4v.2l.1.1c.1.1 0 0 0 0v.4l.1.2a27.4 27.4 0 00.7 2l.1.4.1.2.1.3v.1a18.8 18.8 0 001.9 3.5l.9 1.2.2.3.5.5v8.2a.5.5 0 000 .1c.1.8 1.8 1.5 4 1.8a21 21 0 003 .2h.2a21 21 0 002.9-.2c2.3-.3 4-1 4-1.8v-1.7V140a17.2 17.2 0 003.5-5.5v-.1l.1-.3.3-.6a3.5 3.5 0 003.8-1.5c1.2-1.9.6-4-.7-4.6a2.5 2.5 0 00-1.8-.1z" fill="#fff"/><path data-name="Tracé 12822" d="M128 132.1a3.5 3.5 0 003.9 1.5l-.4-1.2-.1-.4-.1-.3v-.1l-.2-.4v-.2-.2-.1l-.2-.4a19.8 19.8 0 01-.1-.9.8.8 0 010-.1v-.2l-.1-.3v-.6a1.2 1.2 0 010-.2.4.4 0 01-.1-.2.9.9 0 010-.1 1.5 1.5 0 010-.2.5.5 0 010-.1 2.5 2.5 0 00-1.9.1c-1.3.6-1.9 2.7-.6 4.6z" fill="#fff"/><path data-name="Tracé 12823" d="M125.3 265.7A72.1 72.1 0 01123 280l-.1.4-.3.9-.1.3v.2l-.2.4-.1.4v.1h-.1v.2l-.1.2-.2.4a13.6 13.6 0 01-1 2l-.3.5v.1l-.2.3v.1l-.2.3-1.5 2.4c-2.7 4.1-5.8 4.5-8.4 2.6l-.3-.2a8.5 8.5 0 01-1.6-5 12.9 12.9 0 01.4-3.3 66.5 66.5 0 013.4-7.4l.3-.5 6.2-11.8 2 .7 4.6 1.4z" fill="#fff"/><path data-name="Tracé 12824" d="M145.2 312.6a56.2 56.2 0 00.2-5.6c0-6.1-.5-13.5-.5-13.5h-8.2s0 2.3-1.9 13.1c0 .3 0 .7-.2 1.2-.6 3.7-2.2 12-1.5 13 4.3 6.9 11.3-.8 12.1-8.2z" fill="#fff"/><path data-name="Tracé 12825" d="M118 187.5a1.4 1.4 0 00-.4 1 1.4 1.4 0 01.4-1 7.8 7.8 0 012.5-1.2 46.5 46.5 0 002.8-10.9h-10.9c-.9 3.6-1.8 8-2.6 12.7v.3l-.2 1.2a40.1 40.1 0 00-1 7.5 8.4 8.4 0 001.1 4l.5 1c.6 1.5 1.4 1.7 3.4 1.4a7.2 7.2 0 011.2 0c1.8 0 4.1.1 9.7-5.5a4.8 4.8 0 001 .1v-2.7c1.3-.4 4.6-1.7 5-2.5s-.3-1-.3-1l1.1-.8a2.2 2.2 0 00.4-.3 1 1 0 00-.2-1.7c.8-.9 0-1.6-1-1.5-1.2.1-10.1 1.8-10.1 1.8l3-1.7a.6.6 0 01.2 0 24.6 24.6 0 013.2-.1c2.5 0 2.3-1 2.3-1s0-1-3.7-1a16.8 16.8 0 00-2 0 24.8 24.8 0 00-2.9.7 7.8 7.8 0 00-2.5 1.2zm.8 4.7a3.4 3.4 0 00.3 1.6 5.1 5.1 0 01-.3-1.6z" fill="#fff" fill-rule="evenodd"/><path data-name="Tracé 12826" d="M167.6 187.7a1.5 1.5 0 00-.2-.2 7.8 7.8 0 00-2.5-1.2 25.3 25.3 0 00-2.9-.8 16.8 16.8 0 00-2 0c-3.7.1-3.8 1-3.8 1s-.1 1.3 2.4 1.2a30.8 30.8 0 003.2-.2.5.5 0 01.4.1l2.8 1.8-10.1-1.8c-1-.1-1.8.6-1 1.6a1 1 0 00-.1 1.6 2.2 2.2 0 00.3.3l1 .7s-.6.2-.1 1 3.6 2.2 5 2.6v2.7a5 5 0 001 0c5.5 5.5 7.8 5.5 9.6 5.4a7.4 7.4 0 011.2 0c2 .3 2.8.1 3.4-1.4l.5-1a8.4 8.4 0 001-4 40 40 0 00-.9-7.5l-.2-1.5a97 97 0 00-2.3-12.7h-11.1a73 73 0 002.7 10.9 7.9 7.9 0 012.5 1.2 1.6 1.6 0 01.2.2zm-1.4 6.4a3.1 3.1 0 00.4-1.7 4.2 4.2 0 01-.4 1.7z" fill="#fff" fill-rule="evenodd"/><path data-name="Tracé 12827" d="M122.8 280.7v-.3c-7.7 6.6-10.4-5-10.4-5a27 27 0 00-1.5 2.6 65 65 0 00-3.4 8.9 3 3 0 00.4 2.5 10.5 10.5 0 002 2.2l.2.2h.1c2.6 2 5.7 1.6 8.3-2.6l1.6-2.4.1-.3.1-.1a9 9 0 00.5-.8 25.5 25.5 0 001-2 12 12 0 00.2-.6v-.1l.1-.2v-.1l.2-.4.1-.4.1-.1v-.2l.1-.2.2-.6zm22.4 32a56.1 56.1 0 00.2-5.7l-.2-.4c-5 6.7-10.3 0-10.3 0-1 2.7-2.5 13.1-1.8 14.3 4.3 6.8 11.3-.9 12.1-8.3z" fill="#ffc300" fill-rule="evenodd"/><path data-name="Tracé 12828" d="M155.4 230h-4.2a254 254 0 01-6.3 63.5h-8.2c-2.5-29.8-1.9-48.2-1.9-48.2-7.3 18.4-9.5 20.4-9.5 20.4h-.2l-4.5-1.4-2-.6c0-1.8 1.5-25 3-33.7v-.3.3c-6.5-15 3.8-27.1 3.8-27.1h2.4a86 86 0 00-.6 2 220.5 220.5 0 00-5.6 24.7 220.4 220.4 0 015.6-24.7l.6-2a44.6 44.6 0 013.4-8l.6-1a6.7 6.7 0 017.5-3.1 35 35 0 019 4.1 57.5 57.5 0 0110 8 47.8 47.8 0 013.6 4 18 18 0 011.9 3 26.3 26.3 0 011 2.4c.5 1 .8 2.1 1.1 3.2 2 7.3-3.2 14.5-10.5 14.5zm8.4-20.2q.6 1.2 1 2.5c-1-3.2-4-9.4-4-9.4h-2.4a41.2 41.2 0 013.5 4 18 18 0 011.9 3z" fill="#fff" fill-rule="evenodd"/><path data-name="Tracé 12831" d="M149.4 140.6v5.2a24.7 24.7 0 01-13.1-3.6v-1.6a11.7 11.7 0 006.3 2h.5a11.5 11.5 0 004.7-1.1 11.7 11.7 0 001.6-1z" fill="#081f4d" fill-rule="evenodd"/><path data-name="Tracé 12832" d="M150 112.4l.3.3.2.1a11.5 11.5 0 013.2 3.5c2 3.4 2 8.4 1.8 10.6v.1a3 3 0 011.5.3 2.9 2.9 0 011.5 1.9 4.3 4.3 0 01-.6 3.4 3.8 3.8 0 01-3.3 1.8 4.5 4.5 0 01-.7 0l-.1.1a18 18 0 01-3.5 5.6v8.1c-.2 1.5-3.2 2.1-4.4 2.3a21.4 21.4 0 01-3 .2h-.2a21.5 21.5 0 01-3-.2h-.2c-1.3-.2-4-.8-4.3-2.2a.6.6 0 010-.1.5.5 0 010-.1v-8a.5.5 0 010-.4v-.1h-.1l-.2-.3a16 16 0 01-.9-1.2 19.2 19.2 0 01-1.8-3.5v-.3a4.4 4.4 0 01-.7.1 3.8 3.8 0 01-3.3-1.7 4.3 4.3 0 01-.7-3.5 2.9 2.9 0 011.5-1.9 3 3 0 011.5-.3v-.2c-.2-2.3-.3-7.2 1.8-10.5a12 12 0 0110.7-5.6h.2a12.8 12.8 0 016.8 1.7zm-29.5 44a.2.2 0 010 .4l-.1.1-.2.1a7.9 7.9 0 00-1.3 1l-.2.3a.2.2 0 01-.4-.3l.2-.3a8.4 8.4 0 011.4-1l.1-.1.2-.2a.2.2 0 01.3 0zm41.3 5.4a.5.5 0 00-.9.3c-.3 3.5-.5 9.8.9 13.2a74.7 74.7 0 002.4 10l-2-.5a16 16 0 00-2.2 0c-3.6.1-4.1 1-4.2 1.5a1.2 1.2 0 00.2.8l-1-.2a1.7 1.7 0 00-1.7.8 1.3 1.3 0 000 1.2 1.4 1.4 0 00-.4.8 1.6 1.6 0 00.6 1.3 2.7 2.7 0 00.4.3l.6.4a1.4 1.4 0 000 1.2c.6 1 3.4 2.1 4.8 2.6h.2v2.5a.5.5 0 00.5.5 5.5 5.5 0 00.8-.1c5.2 5.2 7.8 5.5 9.6 5.4h.3a6.8 6.8 0 011 0 10.9 10.9 0 001.4.2 2.5 2.5 0 002.6-1.9l.3-.6.3-.6a8.4 8.4 0 001-4 38.8 38.8 0 00-.9-7.1v-.4l-.3-1.5v-.5a97.2 97.2 0 00-2.3-12.3.5.5 0 00-.5-.3h-10.7c-1.2-3.3-1-9.3-.7-12.2v-.4a.5.5 0 00-.1-.4zm-13.3 32.7a36.7 36.7 0 00-9.1-4.2 7.1 7.1 0 00-8 3.3l-.7 1a43.5 43.5 0 00-3.2 7.8h-2a.5.5 0 00-.4.2 28.2 28.2 0 00-4.4 7.7v.3a26.2 26.2 0 00.3 19.4c-1.2 7.5-2.4 25-2.8 31.5l-.2 2c-.3.8-2.7 5.3-5.4 10.3l-.7 1.4-1.3 2.3v.2l-.1.1c-.8 1.6-1.6 3.5-2.3 5.4l-1 2.8-.1.5v.2a5 5 0 00.4 3 11 11 0 002 2.2v.1h.1l.2.2h.1a5.5 5.5 0 003.3 1.2h.2a4.5 4.5 0 00.6 0 5.4 5.4 0 001.8-.7 9.6 9.6 0 003.2-3.2l.2-.4v-.2l1.3-1.9v-.2l.2-.2.2-.3.1-.2.2-.3.6-1.2.4-.9.2-.4v-.2h.1v-.1l.1-.3.2-.3.1-.4v-.1l.2-.5.1-.6.1-.2v-.2l.1-.3a72.4 72.4 0 002.3-13.7v-.5c.6-.6 2.8-3.9 8.3-17.1l.3-.9c0 6.2 0 22.6 1.9 45.7v-.1c0 .3 0 2.8-1.7 12.1l-.2 1a54.6 54.6 0 00-1.8 14 1.4 1.4 0 00.2.5c1.4 2.3 3 2.9 4.3 2.9h.1a4.4 4.4 0 001-.1c3.5-.8 7-6 7.6-11.2a55 55 0 00.2-5.7v-.2c0-4.4-.3-9.4-.4-11.9V293a259.7 259.7 0 006.2-62.5h3.6a11.2 11.2 0 009-4.5l.1-.1a12.1 12.1 0 002-10.6l-.1-.3q-.4-1.4-1-2.7a.5.5 0 000-.2 108 108 0 00-4-9.4.5.5 0 00-.4-.3h-2.3a58.3 58.3 0 00-10-8zm-13.4 113.7v-.5a7.8 7.8 0 005.3 2.4 6.2 6.2 0 004.5-2.3v3.5a62.7 62.7 0 01-.2 1.3 15.5 15.5 0 01-2.8 7.2 7.6 7.6 0 01-4 3.1c-1.7.4-3.2-.4-4.4-2.3-.3-.6.2-4.8 1.6-12.4zm2-14.2h7.4c0 1.6.4 6.8.4 11.6v.6a.5.5 0 000 .2c-1.4 1.8-3 2.7-4.5 2.7h-.1c-2.3 0-4.3-1.9-4.9-2.5v-.1c1.3-7.4 1.6-10.8 1.7-12.2zm4.6-79.6a298.4 298.4 0 01-6.4 31v1c0 4-.2 19.2 1.5 41.8h3.2a.2.2 0 010 .5h-3.2l.3 4.3h7.5v-.5a259.5 259.5 0 006.1-61.5v-1.5l-.2-6.1a9.6 9.6 0 00-3.1-6.9 7.7 7.7 0 00-5.7-2zm-29.2 61.7l-.3.6-.8 1.5-2.2 5v.4l-.1.1a27.9 27.9 0 01-1 2.8l-.1.5-.1.5v.2a4.5 4.5 0 00.4 1.2 6.4 6.4 0 001.3 1.8l.3.3.3.3.2.1h.1l.1.1a5.9 5.9 0 003.3 1c1.5-.4 3-1.6 4.2-3.5l.3-.4a97.7 97.7 0 001.4-2.3v-.2l.2-.2v-.1a13.3 13.3 0 001-1.7c0-.3.2-.5.3-.8l.2-.4v-.2l.1-.2.2-.4.1-.4a5.6 5.6 0 01-4.9 1c-2.7-1-4.2-4.2-4.8-6l.3-.6zm30.3 12a.2.2 0 010 .5h-1.3a.2.2 0 010-.4zm-27.4-3.8c-1.4.2-2.6-1.2-3-2.3a.2.2 0 00-.4 0 .2.2 0 00-.1.2c.4 1.2 1.7 2.6 3.2 2.6a2.3 2.3 0 00.4 0 .2.2 0 00.2-.2.2.2 0 00-.3-.3zm4-19.9l-.6-.1-1.3 2.5-4.6 8.7v.2c.4 1.2 1.8 5.2 4.4 6 1.5.5 3.2 0 5-1.6l.1-.1v-.1a.3.3 0 010-.1 72 72 0 002.3-13.7l-2.7-.8zm12.2-69.2l.7-1.1a6.2 6.2 0 016.9-2.8 34.8 34.8 0 018.8 4 57.2 57.2 0 0110 8v-.2a.5.5 0 000 .1 44.5 44.5 0 013.5 4 17.6 17.6 0 011.8 2.8l1.1 2.4 1 3.2a11.1 11.1 0 01-1.8 9.8v.1a10.3 10.3 0 01-8.2 4h-3.7v-1.7l-.2-4.6a10.6 10.6 0 00-3.5-7.4 8.8 8.8 0 00-6-2.4h-.2a40.2 40.2 0 000-5.4.5.5 0 10-1 .1 39.9 39.9 0 01-.1 6.4 294.5 294.5 0 01-6.2 30.1l-.1.6a112.2 112.2 0 01-9.2 19.9l-6.1-1.8.2-3.7 6 1.4a.2.2 0 100-.5l-6-1.4c.6-7.7 1.7-22.5 2.8-29v-.4a221.8 221.8 0 015.6-24.7l.1-.4.5-1.6a44 44 0 013.3-7.8zm-4.5 8.2h-1.4a28.4 28.4 0 00-4 7.3l-.2.3a25.3 25.3 0 00-.2 17.1l.2-.9a212.6 212.6 0 015.2-22.5l.4-1.3zm33.5 0h-1l1 1.1 1 1.2-.5-1.2-.5-1zm-36.4-41.7a.5.5 0 01.3.4 71.5 71.5 0 01-.7 13.2v.3a47.4 47.4 0 01-2.5 9.7l2-.5a16.4 16.4 0 012.2 0c3.5.1 4 1.2 4 1.6a1 1 0 010 .7l.6-.1h.3a1.7 1.7 0 011.8.6 1.3 1.3 0 010 1.3 1.4 1.4 0 01.3.8 1.6 1.6 0 01-.5 1.3 2.7 2.7 0 01-.4.3l-.6.4a1.4 1.4 0 01-.1 1.2c-.5 1-3.6 2.2-5 2.7v2.4a.5.5 0 01-.4.4 5.5 5.5 0 01-.9 0c-5.5 5.5-8 5.5-9.9 5.4a6.8 6.8 0 00-1 0 10.5 10.5 0 01-1.4.2 2.5 2.5 0 01-2.6-1.8v-.1l-.3-.6-.3-.6a8.5 8.5 0 01-1-4 40 40 0 011-7.5 16.6 16.6 0 00.2-1.4v-.2c.7-4 1.6-8.3 2.6-12.7a.5.5 0 01.5-.4H123v-.5a69.2 69.2 0 00.6-12 .5.5 0 01.7-.5zm38.6 14H173a95.8 95.8 0 012.2 12.3l.3 1.6.1.4a38.7 38.7 0 01.8 7 7.5 7.5 0 01-.9 3.5l-.2.5-.4.7c-.4 1.2-.8 1.4-2.7 1.2h-.2a5.4 5.4 0 00-.7 0h-.5c-1.7 0-3.8 0-8.8-4.8a10.7 10.7 0 004.2-3.4h.1a2.9 2.9 0 001-2.4 2.2 2.2 0 00.2-.3 19 19 0 016-2.2.5.5 0 00-.1-1 19.7 19.7 0 00-5.4 1.8v-.4a5 5 0 000-.6v-.1a2.6 2.6 0 00.4-1.2v-.1a1.9 1.9 0 00-.5-1.3s-.4-.5-2.3-1.1h-.2a73.9 73.9 0 01-2.5-10zm-50 0c-1 4.2-1.9 8.3-2.5 12.3l-.1.6-.2 1v.4a38.4 38.4 0 00-.9 7 7.8 7.8 0 001 3.7l.5 1v.1c.5 1.1 1 1.4 3 1a7.4 7.4 0 011.1 0h.3c1.7 0 3.9-.1 8.5-4.7a10.7 10.7 0 01-4.3-3.4 1.8 1.8 0 01-.6-1 3.8 3.8 0 01-.3-1.4 2.3 2.3 0 01-.3-.3h.1a19.2 19.2 0 00-6.1-2.2.5.5 0 11.1-1 19.7 19.7 0 015.4 1.8 4.9 4.9 0 010-1 2.6 2.6 0 01-.4-1.4 1.9 1.9 0 01.4-1.2h.1c.1-.2.5-.6 2.6-1.3a47 47 0 002.6-10zm61.2 25.6a.2.2 0 00-.4-.2s-.3.6-1.6.4a.2.2 0 000 .5 3.7 3.7 0 00.5 0 1.5 1.5 0 001.5-.7zm-62.1-.2c0 .1.3.6 1.5.4a.2.2 0 110 .5 3.7 3.7 0 01-.5 0 1.5 1.5 0 01-1.5-.7.2.2 0 01.5-.2zm48-15.3h.1a15.5 15.5 0 012 0 25 25 0 012.8.8 7.2 7.2 0 012.3 1 1.2 1.2 0 010 1.5.5.5 0 00-.1.4c0 .2.1 1.6-.6 2.2a.5.5 0 00-.2.4 3.5 3.5 0 01-.4 1.6.8.8 0 01-.2.2.5.5 0 00-.1.1s-2 2.8-4.6 3.4h-.4V196a1.6 1.6 0 01.7.4.5.5 0 00.8-.5 3.3 3.3 0 00-1.8-1c-1.8-.6-4.5-1.8-4.7-2.3a.5.5 0 01-.1-.3l7.2 1.7h.1a.5.5 0 00.1-1l-7.4-1.7-1-.7a1.5 1.5 0 01-.2-.2.7.7 0 01-.3-.5.7.7 0 01.2-.3l9.2 2.5h.1a.5.5 0 00.1-1l-9.3-2.5a.4.4 0 010-.4.8.8 0 01.7-.2l10 1.8h.1a.5.5 0 00.3-.9l-2.8-1.8a1 1 0 00-.7-.1 29.5 29.5 0 01-3.1.2h-.1a2.5 2.5 0 01-1.7-.4.4.4 0 01-.1-.2c.1-.1.7-.6 3-.7zm-36.5 0a25.2 25.2 0 00-2.6.7.4.4 0 01-.1 0l-.2.2a7.1 7.1 0 00-2.2 1 1 1 0 00-.2.8 1.7 1.7 0 00.3.6.5.5 0 010 .3v.1a2.6 2.6 0 00.7 2.2.5.5 0 01.2.4 4.4 4.4 0 00.2 1.2 1.5 1.5 0 00.3.5.5.5 0 01.1.2l.2.2a9 9 0 004.5 3.1l.3.1V196a1.8 1.8 0 00-.7.4.5.5 0 11-.8-.5 3.5 3.5 0 011.9-1l.2-.1a13 13 0 004.5-2.2.5.5 0 000-.4L123 194a.5.5 0 01-.2 0 .5.5 0 010-1l7.3-1.8 1-.6a1.6 1.6 0 00.3-.2.7.7 0 00.3-.5.7.7 0 00-.2-.3l-9.3 2.5a.5.5 0 01-.2-1l9.3-2.4a.4.4 0 000-.5.8.8 0 00-.6-.2h-.2l-9.4 1.7-.6.1a.5.5 0 01-.3-.9l3-1.7a1 1 0 01.5-.1 25 25 0 013.2-.1c1.4 0 1.7-.3 1.8-.4-.2-.2-.8-.6-3.2-.7a15.8 15.8 0 00-2 0zm39.3 2.5l-.7-.5h-.3l-.9.2zm-37.7-.4l-1.8.3.4-.3h1zm3.7-10a.2.2 0 010 .5 1.2 1.2 0 00-1.2 1.2.2.2 0 01-.5 0 1.7 1.7 0 011.7-1.7zm19.6-26.5a.2.2 0 01-.1.4 12.8 12.8 0 01-2.2.5.2.2 0 01-.1-.5 12.6 12.6 0 002.1-.5.2.2 0 01.3 0zm4.3-2.4a.2.2 0 00-.4-.3 8.8 8.8 0 01-3.1 2.2.2.2 0 000 .5.2.2 0 00.2 0 9.2 9.2 0 003.3-2.4zm-16.4-1v-7l.2.2.3.2.3.2.1.1h.1l.1.2.2.1h.2c0 .2.2.2.3.3a1.4 1.4 0 00.2 0c0 .2.2.2.4.3h.1l.2.2h.3l.1.1.4.2h.2l.3.1.4.1h.1l.2.1H141.3l.6.2h.1a4 4 0 00.5 0H143.6a8 8 0 001.2-.2h.2a9.4 9.4 0 001-.3h.2l.2-.1.3-.2a1.3 1.3 0 00.1 0l.3-.2.6-.3h.1l.2-.2h.1l.2-.2.4-.3.2-.1.3-.3h.1v6.9c0 .4-1 1-3.6 1.4a20.7 20.7 0 01-2.8.2h-.2a20.7 20.7 0 01-2.9-.2c-2.5-.3-3.5-1-3.6-1.4a.4.4 0 000-.1zm6.6-36.4h.2a12 12 0 016.4 1.7c.2 0 .3.2.5.3a10.5 10.5 0 013 3.2c1.9 3.1 1.8 7.8 1.6 10V127h.3v.1h-.3v.8a23.8 23.8 0 01-.5 2.4V131l-.2.2v.5l-.2.3a23.3 23.3 0 01-.6 1.8l-.1.4a17 17 0 01-3.2 5.2.5.5 0 00-.2.1 13.1 13.1 0 01-1 1h-.1l-.2.2-.2.1-.2.2-.4.2-.4.3h-.1l-.2.1-.2.1-.2.1h-.1v.1h-.1a.6.6 0 01-.1 0l-.2.1-.2.1h-.1l-.2.1a6 6 0 01-.3 0l-.1.1H144.6l-.1.1h-.2l-.4.1a1 1 0 01-.2 0h-2.1a7 7 0 01-.4 0h-.2a8.5 8.5 0 01-1.3-.5h-.2v-.1a6.5 6.5 0 01-.8-.4l-.3-.2h-.1l-.3-.3a9 9 0 01-.4-.3l-.3-.2a12 12 0 01-1-1l-.2-.2-.2-.3-.1-.1-.2-.2c-.3-.3-.6-.7-.8-1.2a18.2 18.2 0 01-1.8-3.3v-.2l-.1-.2v-.1l-.3-.5a60.1 60.1 0 01-.6-2v-.4l-.1-.3v-.1l-.1-.5v-.4l-.1-.2v-.4-.3l-.1-.2a.5.5 0 010-.2v-.1a.9.9 0 010-.1v-.1a.8.8 0 010-.2.5.5 0 00-.2-.4v-.1c-.1-1.6-.4-7 1.6-10.4a11 11 0 019.8-5.2zM130.2 128a2 2 0 00-.8.2 1.9 1.9 0 00-1 1.2 3.3 3.3 0 00.5 2.6v.1a3 3 0 002.8 1.3l-.3-1-.1-.3h-.1a1.6 1.6 0 01-1.5-2.3.2.2 0 11.4.2 1.1 1.1 0 00.1 1.2 1.1 1.1 0 001 .4v-.1l-.1-.3v-.1l-.1-.4v-.1l-.1-.3v-.4l-.1-.1v-.2-.3a.4.4 0 00-.1-.1v-.4-.2l-.1-.3v-.2a2 2 0 00-.4 0zm25.2.3v-.3a2 2 0 011.2.2 1.9 1.9 0 011 1.2 3.3 3.3 0 01-.6 2.7 3 3 0 01-2.7 1.3l.1-.3.1-.3v-.2l.2-.2v-.3h.2a1.6 1.6 0 001.4-2.3.2.2 0 00-.4.2 1.1 1.1 0 01-.1 1.2 1.1 1.1 0 01-1 .5v-.2l.1-.1v-.3l.1-.2v-.3a20.8 20.8 0 00.4-1.8v-.5z" fill="#081f4d" fill-rule="evenodd"/><path data-name="Rectangle 3506" fill="#fff" d="M133.8 130.7H152v5.2h-18.3z"/><g data-name="Groupe 19791"><path data-name="Tracé 12833" d="M138.7 133.2a2.5 2.5 0 11-2.4-2.7 2.6 2.6 0 012.4 2.7zm13.4 0a2.5 2.5 0 11-2.5-2.7 2.6 2.6 0 012.5 2.7z" fill="#fff" fill-rule="evenodd" opacity=".1"/></g><g data-name="Groupe 19792" transform="translate(140.2 134)" clip-path="url(#a)"><path data-name="Tracé 12834" d="M0 .7a4 4 0 001.6.7 2.2 2.2 0 001.7-.2.4.4 0 000-.4.2.2 0 00-.3 0 2.1 2.1 0 01-1.3 0A2.2 2.2 0 01.5.2C.2 0-.1.4 0 .7z" fill="#223254"/></g><g data-name="Groupe 19793" transform="translate(142.4 128.2)" clip-path="url(#b)"><path data-name="Tracé 12835" d="M0 .3l.2 4.6a.3.3 0 00.5 0L.6.3a.3.3 0 10-.6 0z" fill="#223254"/></g><path data-name="Tracé 12836" d="M138.1 128.3a.6.6 0 00-.2.4 1.2 1.2 0 00-.1.4.4.4 0 00.1.2l.2.3a.4.4 0 00.4 0 .4.4 0 000-.4v-.2-.2l-.1-.2a.5.5 0 00-.3 0 .3.3 0 00-.1.3v.4l.1-.1.1-.1h.2a.2.2 0 010-.1v-.1-.1-.2a.4.4 0 000-.2v-.1a.4.4 0 00-.3 0z" fill="#223254"/><path data-name="Tracé 12837" d="M147.7 128.3a.6.6 0 00-.3.4 1.6 1.6 0 000 .5.4.4 0 000 .2l.2.2a.4.4 0 00.4 0 .4.4 0 00.1-.3v-.2-.3l-.2-.1a.3.3 0 00-.2 0s-.2.1-.1.3V129.3h.1v-.1h.1v-.1h.2v-.1-.2 0l.1-.2a.4.4 0 000-.2l-.2-.1a.3.3 0 00-.2 0z" fill="#223254"/><g data-name="Groupe 19794" transform="translate(134.5 125)" clip-path="url(#c)" fill="#223254"><path data-name="Tracé 12838" d="M2.5 1l.1-.1.3-.1h.4V.6h.8a.4.4 0 01.2 0c.2 0 .4 0 .4-.2s0-.4-.2-.4a3.8 3.8 0 00-2.4.2.3.3 0 000 .5c0 .2.2.2.4.1z"/><path data-name="Tracé 12839" d="M14 .3a3.6 3.6 0 00-2.4-.2.3.3 0 00-.2.4.3.3 0 00.4.2h1.4l.3.1h.7a.7.7 0 00-.2-.5z"/></g><path data-name="Tracé 12840" d="M169.8 133.4a4.2 4.2 0 01.8 3.8 3.4 3.4 0 01-1.8 2 2.4 2.4 0 00-1.3 3.2l.2.7a3 3 0 01-2.6 3.8 9.7 9.7 0 01-1 0c-2.2 0-2 2.3-2 2.3.1.8.6 2-.6 3l-.4-.1-.5-.3-1.4-.5a57 57 0 00-9.3-2.9v-8a17 17 0 003.4-5.5l.1-.3.3-.7a3.4 3.4 0 003.7-1.4c1.3-1.9.7-4-.6-4.6a2.4 2.4 0 00-1.8 0s-.6-5-4.9-4-5.3-1.6-6.2-2.9-2.5-2-5.1-1c-1.9.6-3.7-.7-4.5-1.5a.1.1 0 00-.2 0 2.8 2.8 0 01-1.3 4 4.2 4.2 0 00-2 3.4v2a2.4 2.4 0 00-1.7 0c-1.3.7-1.9 2.7-.7 4.6a3.4 3.4 0 003.8 1.4l.2.7.2.4a17 17 0 003.4 5.3v8.1a87.8 87.8 0 00-6.7 2l-2.2.7-.5.2-.5.2-2.2 1a2.9 2.9 0 01-1.1-2 2.8 2.8 0 010-1c.2-.6.3-2-2-2.8a3.7 3.7 0 01-1.9-5.4 2.9 2.9 0 00-.6-4l-.4-.3a4.2 4.2 0 01-.2-6.5c1.4-1 1.5-2.3.7-4-1.2-2.8-.3-4.7.6-5.7a4 4 0 012-1.2c1-.2 1.6-.6 1.7-1.6a4.9 4.9 0 011.2-2.6c2-2 5.1-1.7 5.7-1.6a7.6 7.6 0 012.2-6 5.6 5.6 0 014-1.5 7.1 7.1 0 003-.4c1.5-.6 3.2-2.5 6.2-2.2a5.6 5.6 0 012.1.7 4.6 4.6 0 002.9.5c2.1-.3 4.6-.7 6.5 3.3 1 2.2 4-.4 6.5 1.2 3.8 2.4 1.6 5.5 3.2 6.8s5.2 1.5 2.9 6.8a2.9 2.9 0 00-.3 1.3 2 2 0 001 1.7 2.4 2.4 0 01.5 3.8c-1.1 1-1.6 2.3-.5 3.6z" fill="#1e96fc" fill-rule="evenodd"/><path data-name="Tracé 12841" d="M147.4 104a6 6 0 00-2.3-.8 7.4 7.4 0 00-4.9 1.3l-.3.3a8.5 8.5 0 01-1.2.7 6.8 6.8 0 01-2.8.3 6.2 6.2 0 00-4.4 1.6 7.9 7.9 0 00-2.3 5.7v.2a7.3 7.3 0 00-5.6 1.7 5.2 5.2 0 00-1.3 2.7v.3c-.2.6-.5 1-1.4 1.2a4.5 4.5 0 00-2.2 1.3c-1 1.1-2 3.1-.7 6.1v.1c.7 1.6.5 2.6-.6 3.4a4.5 4.5 0 00-1.6 3.3 4.8 4.8 0 001.8 4l.4.3v.1a2.4 2.4 0 01.5 3.2v.1a4.2 4.2 0 00-.4 3.4v.1a4.3 4.3 0 002.4 2.5c2 .7 2 1.7 1.9 2.2a3.2 3.2 0 00-.1 1.2 3.4 3.4 0 001.4 2.3.5.5 0 00.3.1.5.5 0 00.2 0 43 43 0 012-1l.8-.2.3-.1.2-.1a46.7 46.7 0 015.7-1.8l.8-.2 2-.6a.5.5 0 00.5-.5v-8a.5.5 0 00-.2-.4 16.7 16.7 0 01-3.3-5.2v-.1l-.1-.3-.2-.6a.5.5 0 00-.6-.4 3 3 0 01-3.2-1.2h-.1a3.3 3.3 0 01-.4-2.6 1.8 1.8 0 01.9-1.2 2 2 0 011.4-.1.5.5 0 00.7-.5l-.1-2a3.7 3.7 0 011.7-2.8 3.2 3.2 0 002-3.4 4.5 4.5 0 004 .8c2-.7 3.6-.3 4.5 1l.3.3c.8 1.4 2.3 3.6 6.5 2.6a3 3 0 012.5.4 5 5 0 011.7 3v.2a.5.5 0 00.6.4 2 2 0 011.5 0 1.8 1.8 0 01.9 1.3 3.3 3.3 0 01-.5 2.6v.1a3 3 0 01-3.2 1.1.5.5 0 00-.6.3l-.2.5v.2l-.2.4a16.6 16.6 0 01-3.3 5.2.5.5 0 00-.1.3v8.1a.5.5 0 00.4.5l2 .5.9.3a71.7 71.7 0 017.7 2.6l.4.2.5.2a.5.5 0 00.5-.1 2.8 2.8 0 001-2.8l-.1-.2a2.7 2.7 0 010-.5 2 2 0 01.3-1.3 1.3 1.3 0 011-.4 10.2 10.2 0 001.1 0 3.5 3.5 0 003-4.4l-.2-.8a2 2 0 011.1-2.6 3.8 3.8 0 002-2.2 4.6 4.6 0 00-.8-4.4 1.8 1.8 0 01-.5-1.3 2.3 2.3 0 011-1.5 2.7 2.7 0 00.9-2.3 3 3 0 00-1.5-2.4 1.5 1.5 0 01-.8-1.3 2.4 2.4 0 01.3-1v-.2c1.8-4.2 0-5.6-1.7-6.4l-.3-.2a7.4 7.4 0 01-1-.6c-.5-.3-.5-.8-.6-1.7v-.4a5.4 5.4 0 00-2.7-4.7 5.1 5.1 0 00-3.7-.5h-.4c-1.2.2-1.9.2-2.2-.6h-.1c-2-4-4.4-3.9-6.6-3.6h-.4a4 4 0 01-2.5-.4zm-8.3 2.4a9.6 9.6 0 001.3-.8 6.8 6.8 0 014.6-1.4 5.1 5.1 0 012 .6 5 5 0 003 .5c2.3-.3 4.3-.5 6 3 .8 1.5 2 1.4 3.3 1.2h.5a4.1 4.1 0 013 .3 4.4 4.4 0 012.2 3.9v.6a2.8 2.8 0 001 2.3 8 8 0 001.1.7c1.7.8 3.2 1.7 1.6 5.4a3.3 3.3 0 00-.3 1.6 2.5 2.5 0 001.2 2v.1a2 2 0 011 1.6 1.7 1.7 0 01-.6 1.4 3.2 3.2 0 00-1.3 2.2 2.8 2.8 0 00.8 2.1 3.7 3.7 0 01.6 3.4 2.8 2.8 0 01-1.5 1.6 2.9 2.9 0 00-1.6 3.8l.2.7a2.5 2.5 0 01-2.2 3.2 8.9 8.9 0 01-1 0 2.3 2.3 0 00-1.7.8 2.9 2.9 0 00-.6 2v.7a2 2 0 01-.3 1.7h-.2l-.6-.3-1.2-.5h-.3a60.8 60.8 0 00-8-2.6l-.7-.2v-7.5a17.8 17.8 0 003.3-5.4l.2-.4.1-.2a3.9 3.9 0 003.8-1.7v-.1a4.3 4.3 0 00.7-3.4 2.8 2.8 0 00-3.1-2 5.7 5.7 0 00-2-3.5 4 4 0 00-3.4-.5c-3.2.8-4.4-.7-5.2-1.9l-.2-.3-.3-.3c-1.6-2.3-4.3-1.7-5.6-1.3-1.6.5-3.1-.5-4-1.3v-.1a.6.6 0 00-1 .7 2.3 2.3 0 01-1.2 3.3 4.7 4.7 0 00-2.2 3.7v1.4a2.9 2.9 0 00-1.4.3 2.8 2.8 0 00-1.5 1.8 4.3 4.3 0 00.7 3.5 3.9 3.9 0 003.8 1.7v.2l.2.4a17.8 17.8 0 003.4 5.4v7.5a103.9 103.9 0 00-8.5 2.6l-.5.2-.6.2-1.9.8a2.4 2.4 0 01-.7-1.4 2.3 2.3 0 010-.9c.2-.5.4-2.3-2.4-3.3a3.2 3.2 0 01-1.5-4.7 3.4 3.4 0 00-.7-4.5l-.2-.1-.3-.3a3.9 3.9 0 01-1.5-3v-.1a3.5 3.5 0 011.3-2.6c2-1.5 1.5-3.4 1-4.7-1.2-2.4-.5-4 .4-5a3.6 3.6 0 011.8-1v-.1a2.4 2.4 0 002-2 4.4 4.4 0 011-2.4 6 6 0 014.3-1.5h.1a7.4 7.4 0 011 .1.6.6 0 00.6-.6 7 7 0 012-5.5 5.2 5.2 0 013.7-1.4 7.7 7.7 0 003.2-.4z" fill="#372168" fill-rule="evenodd"/><path data-name="Tracé 12842" d="M130.5 125.2v9.8a.3.3 0 01-.2.3H127.2a3 3 0 01-2.6-2.3 3 3 0 01-.1-.8v-4a3 3 0 013-3z" fill="#f7f9fb" fill-rule="evenodd"/><path data-name="Tracé 12843" d="M127.5 135.8h2.8a.8.8 0 00.7-.8v-9.8a.5.5 0 00-.5-.5h-3a3.5 3.5 0 00-3.5 3.6v4a3.5 3.5 0 000 .8 3.5 3.5 0 003.1 2.6 2.3 2.3 0 00.4 0zm-2.5-8.2a2.5 2.5 0 012.5-1.9h2.5v9h-2.8a2.6 2.6 0 01-2.2-1.8 2.4 2.4 0 010-.7v-4a2.6 2.6 0 010-.6z" fill="#081f4d" fill-rule="evenodd"/><path data-name="Tracé 12844" d="M161.8 128.3v4a3 3 0 010 .7 3 3 0 01-3 2.3h-3a.3.3 0 01-.3-.2.3.3 0 010-.1v-9.8h3.3a3 3 0 013 3z" fill="#f7f9fb" fill-rule="evenodd"/><path data-name="Tracé 12845" d="M155 135.4a.8.8 0 00.7.4h3.1a3.5 3.5 0 003.5-3.6v-4a3.5 3.5 0 00-3.5-3.5h-3.3a.5.5 0 00-.5.5v9.8a.8.8 0 000 .4zm3.8-.6H156v-9h2.8a2.5 2.5 0 012.5 1.8 2.6 2.6 0 010 .7v4a2.6 2.6 0 010 .6 2.5 2.5 0 01-2.5 1.9z" fill="#081f4d" fill-rule="evenodd"/><path data-name="Tracé 12846" d="M127.4 131.1v.8a1.1 1.1 0 01-1.1 1.1h-1.8a3 3 0 010-.8v-4a3 3 0 010-.7h1.8a1.1 1.1 0 011.1 1.2v.8" fill="#c7e5fe" fill-rule="evenodd"/><path data-name="Tracé 12847" d="M126.3 133.5h-1.8a.5.5 0 01-.4-.4 3.5 3.5 0 01-.1-.9v-4a3.6 3.6 0 010-.8.5.5 0 01.5-.4h1.8a1.6 1.6 0 011.6 1.6v.9a.5.5 0 01-1 0v-.8a.7.7 0 00-.6-.7H125a2.6 2.6 0 000 .3v4a2.6 2.6 0 000 .2h1.3a.7.7 0 00.6-.6v-.7a.5.5 0 111 0v.7a1.6 1.6 0 01-1.6 1.6z" fill="#081f4d"/><path data-name="Tracé 12848" d="M158.2 125.3h-2.7a15.3 15.3 0 00-1-4.1 9.3 9.3 0 00-.6-1.3v-.1a13.1 13.1 0 00-4.2-4.9 10.8 10.8 0 00-1.5-.9 11.3 11.3 0 00-2.9-1h-.1a12.1 12.1 0 00-4.4 0h-.1a11.3 11.3 0 00-2.9 1l-.7.4-.8.5a13.1 13.1 0 00-4.2 4.9l-.5 1-.1.4a15.4 15.4 0 00-1 4h-2.7c.7-6.5 4-11 8.4-13.1l.7-.4a9.5 9.5 0 011.2-.4h.1a15.9 15.9 0 014.7-.7h.2a15.9 15.9 0 014.7.6 9.5 9.5 0 012 .9c4.5 2.1 7.7 6.6 8.4 13.2z" fill="#c7e5fe" fill-rule="evenodd"/><path data-name="Tracé 12849" d="M155.5 125.7h2.7a.5.5 0 00.5-.5c-.7-6.4-3.8-11.2-8.6-13.5a7.7 7.7 0 00-.8-.4 10.5 10.5 0 00-1.3-.5 16.4 16.4 0 00-4.9-.7h-.2a16.4 16.4 0 00-4.8.7h-.1l-.5.2a6.7 6.7 0 00-.7.2l-.1.1-.8.4c-4.8 2.3-7.9 7.1-8.6 13.5a.5.5 0 00.5.6h2.7a.5.5 0 00.5-.5 14.9 14.9 0 011-4l.1-.3.4-.9-.4-.3.5.2a12.6 12.6 0 014-4.6l.8-.5.7-.4a10.6 10.6 0 011.5-.6 11 11 0 011.2-.3h.1a11.6 11.6 0 014.2 0h.1a11 11 0 012.8.9 16.7 16.7 0 011.4.8 12.7 12.7 0 014 4.7v.1l.5.9.1.3a14.8 14.8 0 011 4 .5.5 0 00.5.4zm2.1-1H156a15.9 15.9 0 00-1-3.7v-.4l-.5-1a13.6 13.6 0 00-4.4-5 9.4 9.4 0 00-.9-.6l-.1-.1-.6-.3a11.9 11.9 0 00-1.7-.7l-1.2-.3h-.2a12.6 12.6 0 00-4.6 0h-.1a12 12 0 00-1.2.3 11.7 11.7 0 00-1.8.7 9.3 9.3 0 00-1.6 1 13.6 13.6 0 00-4.3 5l.4.2-.5-.2a13.8 13.8 0 00-.5 1.4 16 16 0 00-1 3.8h-1.7c.8-5.8 3.6-10.1 8-12.3a9.5 9.5 0 011.9-.7h.1a15.4 15.4 0 014.5-.7h.2a15.4 15.4 0 014.5.6h.2a10.7 10.7 0 011.8.8c4.4 2.2 7.3 6.5 8 12.3z" fill="#081f4d" fill-rule="evenodd"/><path data-name="Tracé 12850" d="M158.6 129.2v-.5a1.1 1.1 0 011.1-1.2h2a3 3 0 01.1.8v4a3 3 0 010 .7h-2a1.1 1.1 0 01-1.2-1.1v-.7" fill="#c7e5fe" fill-rule="evenodd"/><path data-name="Tracé 12851" d="M161.7 133.5h-2a1.6 1.6 0 01-1.6-1.6v-.7a.5.5 0 011 0v.7a.7.7 0 00.6.6h1.6a2.6 2.6 0 000-.3v-4a2.6 2.6 0 000-.2h-1.6a.7.7 0 00-.6.7v.5a.5.5 0 11-1 0v-.5a1.6 1.6 0 011.6-1.7h2a.5.5 0 01.5.4 3.6 3.6 0 01.1.9v4a3.6 3.6 0 01-.1.8.5.5 0 01-.5.4z" fill="#081f4d"/><path data-name="Tracé 12852" d="M146 218.2c-4-.1-5 2.4-5.7 3.5l.8-7.3c0-.3.8-.6 3.8 0 2.7.5 4.4 3.5 5.1 5.4a1.4 1.4 0 01.2.6c0-.1 0-.4-.2-.6-.4-.7-1.5-1.5-4-1.6z" fill="#081f4d"/><path data-name="Tracé 12853" d="M119.6 214.4s4-8.8 6-11.3h2.4l-2.5 6.3-4 19.8c0 .4-.5.7-1-1.3s-.9-9.9-1-13.5z" fill="#081f4d"/><path data-name="Tracé 12854" d="M161.9 206.5l-3.3-3.4h2.1z" fill="#081f4d"/><path data-name="Tracé 12855" d="M174 179.5c-4.6-4.6-10.6-1.6-11-1l-.7-3h10.8c-.2.2 1.2 3 .9 4z" fill="#081f4d"/><path data-name="Tracé 12856" d="M122.7 177.4c-7.3-1.7-10.4 1-11.3 1.8l1-3.8h10.3c2.4 1.3 0 2 0 2z" fill="#081f4d"/><path data-name="Tracé 12857" d="M86 133.2a.4.4 0 01-.4-.4v-10a.4.4 0 11.8 0v10a.4.4 0 01-.4.4z" fill="#c1c7d2"/><path data-name="Tracé 12858" d="M110 143.2H94.2a.4.4 0 01-.3-.4v-10a.4.4 0 11.7 0v9.6h15.6a.4.4 0 110 .8z" fill="#c1c7d2"/><path data-name="Tracé 12859" d="M77.9 143.2h16.3a.4.4 0 00.3-.4v-10a.4.4 0 00-.3-.3H77.9a.4.4 0 00-.4.3v10a.4.4 0 00.4.4zm15.9-.8H78.2v-9.2h15.6z" fill="#c1c7d2" fill-rule="evenodd"/><path data-name="Tracé 12860" d="M100.2 133.2H63.9a.4.4 0 110-.7h36.3a.4.4 0 010 .7z" fill="#c1c7d2"/><path data-name="Tracé 12861" d="M109 143.2H70a.4.4 0 110-.8h39a.4.4 0 010 .8z" fill="#c1c7d2"/><path data-name="Tracé 12862" d="M86 153.2a.4.4 0 01-.4-.4v-10a.4.4 0 01.4-.4h16.3a.4.4 0 01.4.4v5a.4.4 0 01-.8 0v-4.6H86.4v9.6a.4.4 0 01-.4.4z" fill="#c1c7d2"/><path data-name="Tracé 12863" d="M136.6 68.6A16.4 16.4 0 10120 52.2a16.4 16.4 0 0016.5 16.4z" fill="#fff"/><g data-name="Groupe 23510" fill="#c1c7d2"><path data-name="Tracé 12864" d="M119.8 16.8A16.8 16.8 0 10136.6 0a16.8 16.8 0 00-16.8 16.8zm.7 0a16 16 0 1116 16 16 16 0 01-16-16z" fill-rule="evenodd"/><path data-name="Tracé 12865" d="M142.7 22.2a.4.4 0 01-.2-.1l-6.2-5a.4.4 0 01-.1-.3V9.3a.4.4 0 11.7 0v7.3l6 5a.4.4 0 01-.2.6z"/></g></g></svg>